<svg width="171" height="171" viewBox="0 0 171 171" fill="none" xmlns="http://www.w3.org/2000/svg">
<path d="M132.353 51.7322V75.1632C132.353 76.1331 132.903 77.0188 133.774 77.4476C134.643 77.8761 135.681 77.7736 136.451 77.1831L144.001 71.3838C145.477 74.405 147.99 77.5114 148.973 78.6744C149.457 79.2468 150.168 79.5765 150.918 79.5765C151.667 79.5765 152.379 79.2465 152.862 78.6744C153.846 77.5114 156.359 74.4047 157.835 71.3838L165.385 77.1831C165.839 77.5311 166.386 77.7101 166.937 77.7101C167.32 77.7101 167.706 77.6236 168.062 77.448C168.932 77.0191 169.483 76.1337 169.483 75.1635V51.7325C169.483 42.3422 162.474 34.5637 153.413 33.34C152.428 14.7895 137.026 0 118.235 0C98.8096 0 83.0058 15.8038 83.0058 35.229V42.9828C76.8458 32.7021 65.5962 25.805 52.7642 25.805C33.9729 25.805 18.5712 40.5945 17.5863 59.145C8.5263 60.3683 1.51697 68.1475 1.51697 77.5375V100.968C1.51697 101.938 2.06771 102.824 2.93807 103.253C3.80777 103.681 4.84546 103.579 5.61496 102.988L13.1653 97.1891C14.6409 100.21 17.1541 103.317 18.1377 104.48C18.6216 105.052 19.3327 105.382 20.0822 105.382C20.8316 105.382 21.543 105.052 22.0266 104.48C23.0102 103.317 25.5234 100.21 26.9993 97.1891L34.5497 102.988C35.0032 103.336 35.55 103.515 36.101 103.515C36.4845 103.515 36.8699 103.429 37.2262 103.253C38.0966 102.824 38.6473 101.939 38.6473 100.969V77.5378C38.6473 68.1859 31.6955 60.4311 22.6889 59.1593C23.6601 43.4116 36.7774 30.8976 52.7642 30.8976C69.3809 30.8976 82.9003 44.4162 82.9003 61.0333V62.6301C77.9647 60.4986 69.077 57.7239 60.8453 60.6689C48.8699 64.9526 43.4985 79.4766 43.2757 80.0925C42.8602 81.241 43.3188 82.5225 44.3682 83.1471C44.811 83.4103 53.161 88.2981 62.5306 88.2981C65.0815 88.2981 67.7083 87.9357 70.2713 87.0186C75.8796 85.0127 80.039 80.7611 82.8999 76.7439V158.267C82.8999 158.518 82.9377 158.76 83.0055 158.989V168.453C83.0055 169.86 84.1454 171 85.5521 171C86.9589 171 88.0987 169.86 88.0987 168.453V132.463V128.678C91.4974 130.146 96.7686 131.919 102.413 131.919C104.964 131.919 107.59 131.557 110.153 130.64C122.129 126.356 127.501 111.833 127.723 111.217C128.139 110.068 127.68 108.787 126.631 108.162C126.068 107.827 112.703 100.005 100.727 104.29C95.1194 106.296 90.96 110.547 88.0991 114.565V111.963C88.0991 95.3465 101.618 81.8275 118.235 81.8275C134.222 81.8275 147.339 94.3416 148.31 110.088C139.304 111.36 132.352 119.115 132.352 128.467V151.898C132.352 152.867 132.903 153.753 133.773 154.182C134.643 154.611 135.681 154.508 136.45 153.918L144.001 148.118C145.476 151.14 147.989 154.246 148.973 155.409C149.457 155.981 150.168 156.311 150.918 156.311C151.667 156.311 152.378 155.981 152.862 155.409C153.846 154.246 156.359 151.139 157.835 148.118L165.385 153.918C165.839 154.266 166.385 154.445 166.936 154.445C167.32 154.445 167.705 154.358 168.062 154.183C168.932 153.754 169.483 152.868 169.483 151.898V128.467C169.483 119.077 162.473 111.298 153.413 110.075C152.428 91.5244 137.026 76.7349 118.235 76.7349C105.477 76.7349 94.2815 83.5522 88.0991 93.7344V35.229C88.0991 18.6123 101.618 5.09326 118.235 5.09326C134.222 5.09326 147.339 17.6073 148.31 33.354C139.304 34.6255 132.353 42.3806 132.353 51.7322ZM20.0818 98.6971C18.7576 96.8622 17.6965 95.084 17.3007 94.0129L20.0825 91.8761L22.8642 94.0126C22.4668 95.083 21.4054 96.8608 20.0818 98.6971ZM33.5541 77.5371V95.8011L21.6332 86.6452C21.176 86.2942 20.6289 86.1182 20.0822 86.1182C19.5354 86.1182 18.988 86.2942 18.5311 86.6452L6.61023 95.8011V77.5371C6.61023 70.1087 12.6537 64.0649 20.0818 64.0649C27.51 64.0649 33.5541 70.1087 33.5541 77.5371ZM68.5563 82.2236C61.2274 84.8454 52.7148 81.5707 48.9421 79.7845C50.7172 76.0128 55.2026 68.0967 62.5613 65.4643C68.1128 63.4787 74.3426 64.8761 78.6774 66.4469L64.7011 71.4466C63.3772 71.9202 62.6872 73.378 63.1615 74.702C63.5339 75.7426 64.5134 76.3916 65.5591 76.3916C65.844 76.3916 66.1333 76.3435 66.4168 76.2423L80.4074 71.2375C78.0598 75.1979 74.1342 80.2281 68.5563 82.2236ZM102.443 109.086C109.772 106.465 118.288 109.74 122.058 111.525C120.282 115.296 115.796 123.213 108.438 125.845C102.886 127.831 96.6574 126.433 92.3223 124.862L106.298 119.863C107.622 119.389 108.312 117.932 107.838 116.608C107.364 115.284 105.906 114.594 104.583 115.068L90.6073 120.067C92.9622 116.103 96.8919 111.072 102.443 109.086ZM150.916 149.627C149.592 147.792 148.531 146.015 148.135 144.943L150.917 142.806L153.699 144.943C153.302 146.013 152.24 147.791 150.916 149.627ZM164.389 128.467V146.731L152.468 137.576C152.011 137.224 151.464 137.048 150.917 137.048C150.37 137.048 149.823 137.224 149.366 137.576L137.446 146.731V128.467C137.446 121.039 143.489 114.995 150.917 114.995C158.345 114.995 164.389 121.039 164.389 128.467ZM150.916 72.8921C149.592 71.0572 148.531 69.2794 148.135 68.208L150.917 66.0711L153.699 68.2076C153.302 69.278 152.24 71.0558 150.916 72.8921ZM150.917 38.2606C158.345 38.2606 164.389 44.3044 164.389 51.7328V69.9968L152.468 60.8409C152.011 60.4899 151.464 60.3139 150.917 60.3139C150.37 60.3139 149.823 60.4899 149.366 60.8409L137.446 69.9968V51.7328C137.446 44.304 143.489 38.2606 150.917 38.2606Z" fill="#5B4625"/>
</svg>
