<svg width="252" height="252" viewBox="0 0 252 252" fill="none" xmlns="http://www.w3.org/2000/svg">
<path d="M174.692 138.163C178.131 143.19 180.145 149.269 180.145 155.819C180.145 162.369 178.131 168.448 174.692 173.475H174.685C169.052 181.716 159.579 187.124 148.841 187.124C138.103 187.124 128.629 181.716 122.996 173.475C119.557 168.448 117.543 162.369 117.543 155.819C117.543 149.269 119.557 143.191 122.996 138.163C128.63 129.923 138.103 124.521 148.841 124.521C159.579 124.521 169.052 129.923 174.685 138.163H174.692Z" fill="#5B4625"/>
<path d="M186.198 208.78C195.845 208.896 203.628 216.756 203.628 226.429C203.628 231.307 201.653 235.715 198.459 238.909C195.258 242.104 190.844 244.078 185.972 244.078H111.709C101.965 244.078 94.0604 236.18 94.0604 226.429C94.0604 221.551 96.0351 217.137 99.2294 213.942C102.372 210.8 106.702 208.838 111.484 208.78H186.198Z" fill="#F7B239"/>
<path d="M227.11 191.124C227.11 196.003 225.136 200.41 221.941 203.605C218.741 206.799 214.327 208.78 209.454 208.78H186.197C186.12 208.774 186.049 208.774 185.971 208.774H111.709C111.632 208.774 111.561 208.774 111.484 208.78H88.2329C78.4821 208.78 70.577 200.875 70.577 191.124C70.577 186.246 72.5516 181.838 75.7524 178.644C78.9467 175.449 83.3607 173.475 88.2329 173.475H122.996C128.63 181.716 138.103 187.123 148.84 187.123C159.579 187.123 169.052 181.716 174.685 173.475H174.691H209.454C219.205 173.475 227.11 181.38 227.11 191.124Z" fill="#F7B239"/>
<path d="M88.2329 138.163H122.996C119.556 143.19 117.543 149.269 117.543 155.819C117.543 162.369 119.556 168.448 122.996 173.475H88.2329H73.0807C63.3299 173.475 55.4248 165.564 55.4248 155.819C55.4248 150.941 57.4059 146.533 60.5938 143.339C63.7945 140.144 68.2021 138.163 73.0807 138.163H88.2329Z" fill="#F7B239"/>
<path d="M242.256 155.819C242.256 160.698 240.281 165.105 237.087 168.3C233.893 171.494 229.479 173.475 224.6 173.475H209.455H174.692C178.131 168.448 180.145 162.369 180.145 155.819C180.145 149.269 178.131 143.191 174.692 138.163H209.455H224.6C234.357 138.163 242.256 146.068 242.256 155.819Z" fill="#F7B239"/>
<path d="M227.11 120.514C227.11 125.393 225.136 129.807 221.941 132.995C218.741 136.196 214.327 138.164 209.454 138.164H174.691H174.685C169.051 129.923 159.578 124.522 148.84 124.522C138.102 124.522 128.629 129.923 122.996 138.164H88.2329C78.4821 138.164 70.577 130.272 70.577 120.515C70.577 115.636 72.5516 111.229 75.7524 108.041C78.9467 104.84 83.3607 102.872 88.2329 102.872H209.454C219.205 102.871 227.11 110.764 227.11 120.514Z" fill="#F7B239"/>
<path d="M185.972 67.5598C195.723 67.5598 203.628 75.4649 203.628 85.2089C203.628 90.0875 201.653 94.5014 198.459 97.6958C195.258 100.89 190.844 102.865 185.972 102.865H111.709C101.965 102.865 94.0604 94.9597 94.0604 85.2089C94.0604 80.3366 96.0351 75.9227 99.2294 72.7283C102.424 69.534 106.838 67.5593 111.71 67.5593H185.972V67.5598Z" fill="#F7B239"/>
<path d="M115.356 85.2093C115.356 80.3371 117.33 75.9231 120.525 72.7288C123.719 69.5345 128.133 67.5598 133.005 67.5598H111.71C106.838 67.5598 102.424 69.5345 99.2294 72.7288C96.0351 75.9231 94.0604 80.3371 94.0604 85.2093C94.0604 94.9602 101.966 102.865 111.709 102.865H133.005C123.261 102.864 115.356 94.9592 115.356 85.2093Z" fill="#F2BA3B"/>
<path d="M91.8727 120.514C91.8727 115.642 93.8473 111.228 97.0417 108.034C100.236 104.839 104.65 102.865 109.522 102.865H88.227C83.3548 102.865 78.9408 104.839 75.7465 108.034C72.5521 111.228 70.5775 115.642 70.5775 120.514C70.5775 130.265 78.4826 138.17 88.2265 138.17H109.522C99.7778 138.169 91.8727 130.264 91.8727 120.514Z" fill="#F2BA3B"/>
<path d="M76.7205 155.819C76.7205 150.947 78.6952 146.533 81.8895 143.339C85.0838 140.144 89.4978 138.17 94.37 138.17H73.0748C68.2026 138.17 63.7886 140.144 60.5943 143.339C57.4 146.533 55.4253 150.947 55.4253 155.819C55.4253 165.57 63.3304 173.475 73.0743 173.475H94.3695C84.6256 173.474 76.7205 165.569 76.7205 155.819Z" fill="#F2BA3B"/>
<path d="M91.8727 191.124C91.8727 186.252 93.8473 181.838 97.0417 178.644C100.236 175.449 104.65 173.475 109.522 173.475H88.227C83.3548 173.475 78.9408 175.449 75.7465 178.644C72.5521 181.838 70.5775 186.252 70.5775 191.124C70.5775 200.875 78.4826 208.78 88.2265 208.78H109.522C99.7778 208.779 91.8727 200.874 91.8727 191.124Z" fill="#F2BA3B"/>
<path d="M115.356 226.429C115.356 221.557 117.33 217.143 120.525 213.949C123.719 210.754 128.133 208.78 133.005 208.78H111.71C106.838 208.78 102.424 210.754 99.2294 213.949C96.0351 217.143 94.0604 221.557 94.0604 226.429C94.0604 236.18 101.966 244.085 111.709 244.085H133.005C123.261 244.084 115.356 236.179 115.356 226.429Z" fill="#F2BA3B"/>
<path d="M187.953 89.3925C190.626 89.3925 192.793 87.2256 192.793 84.5527C192.793 81.8798 190.626 79.713 187.953 79.713C185.28 79.713 183.113 81.8798 183.113 84.5527C183.113 87.2256 185.28 89.3925 187.953 89.3925Z" fill="white"/>
<path d="M210.216 125.046C212.889 125.046 215.056 122.879 215.056 120.206C215.056 117.533 212.889 115.366 210.216 115.366C207.543 115.366 205.377 117.533 205.377 120.206C205.377 122.879 207.543 125.046 210.216 125.046Z" fill="white"/>
<path d="M226.672 160.699C229.345 160.699 231.511 158.533 231.511 155.86C231.511 153.187 229.345 151.02 226.672 151.02C223.999 151.02 221.832 153.187 221.832 155.86C221.832 158.533 223.999 160.699 226.672 160.699Z" fill="white"/>
<path d="M210.216 196.353C212.889 196.353 215.056 194.186 215.056 191.513C215.056 188.84 212.889 186.673 210.216 186.673C207.543 186.673 205.377 188.84 205.377 191.513C205.377 194.186 207.543 196.353 210.216 196.353Z" fill="white"/>
<path d="M247.16 248.933C249.833 248.933 252 246.766 252 244.093C252 241.421 249.833 239.254 247.16 239.254C244.487 239.254 242.321 241.421 242.321 244.093C242.321 246.766 244.487 248.933 247.16 248.933Z" fill="#F2BA3B"/>
<path d="M242.321 77.6094C244.993 77.6094 247.16 75.4426 247.16 72.7697C247.16 70.0968 244.993 67.9299 242.321 67.9299C239.648 67.9299 237.481 70.0968 237.481 72.7697C237.481 75.4426 239.648 77.6094 242.321 77.6094Z" fill="#F2BA3B"/>
<path d="M40.028 96.9688C42.7009 96.9688 44.8677 94.8019 44.8677 92.129C44.8677 89.4561 42.7009 87.2893 40.028 87.2893C37.3551 87.2893 35.1883 89.4561 35.1883 92.129C35.1883 94.8019 37.3551 96.9688 40.028 96.9688Z" fill="#F2BA3B"/>
<path d="M34.2206 174.399C36.8936 174.399 39.0604 172.233 39.0604 169.56C39.0604 166.887 36.8936 164.72 34.2206 164.72C31.5477 164.72 29.3809 166.887 29.3809 169.56C29.3809 172.233 31.5477 174.399 34.2206 174.399Z" fill="#F2BA3B"/>
<path d="M247.096 155.819C247.096 144.497 238.686 135.107 227.786 133.555C230.489 129.777 231.952 125.261 231.952 120.513C231.952 108.115 221.861 98.0279 209.458 98.0279H204.442C206.975 94.3882 208.466 89.9727 208.466 85.2122C208.466 72.81 198.376 62.7205 185.974 62.7205H153.684V47.3297C172.878 48.8432 190.645 49.3742 206.072 49.3742C210.21 49.3742 214.183 49.3363 217.969 49.2689C220.642 49.2212 222.77 47.0166 222.723 44.344C222.676 41.6709 220.455 39.5397 217.798 39.5904C209.483 39.7376 201.41 39.7248 193.57 39.5821L200.956 30.4258C202.635 28.3453 202.308 25.2982 200.228 23.6203C198.145 21.9414 195.101 22.2677 193.422 24.3482L181.402 39.2494C171.761 38.895 162.52 38.3408 153.686 37.6291V34.0533C153.686 31.3802 151.519 29.2135 148.846 29.2135C146.172 29.2135 144.006 31.3807 144.006 34.0533V36.7726C109.227 33.4164 81.354 27.7045 61.3946 22.502C58.8687 21.844 56.4368 21.1834 54.0802 20.5249L76.8293 13.7651C79.3916 13.0037 80.8515 10.3094 80.0905 7.74708C79.3291 5.18521 76.6344 3.72636 74.073 4.4863L37.2605 15.4243C17.5826 8.95836 7.19539 3.67665 7.05757 3.60577C4.68176 2.38218 1.76503 3.31341 0.539964 5.68873C-0.685102 8.06405 0.246126 10.9832 2.62145 12.2088C3.41141 12.6168 22.383 22.3027 58.5507 31.7641C63.6375 33.0955 68.7219 34.3304 73.7915 35.4777L84.9145 50.9114C85.8605 52.224 87.3415 52.9215 88.8447 52.9215C89.8256 52.9215 90.8149 52.6247 91.6704 52.0075C93.8385 50.4448 94.3297 47.4197 92.767 45.2511L87.8598 38.4426C107.186 42.236 126.125 44.8042 144.005 46.491V62.719H111.714C99.3116 62.719 89.2222 72.809 89.2222 85.2108C89.2222 89.9712 90.713 94.3877 93.2464 98.0265H88.2349C82.2257 98.0265 76.5778 100.366 72.3346 104.609C68.0835 108.849 65.7422 114.496 65.7422 120.511C65.7422 125.368 67.2945 129.866 69.9223 133.546C65.1205 134.219 60.679 136.418 57.1716 139.916C52.9269 144.172 50.589 149.819 50.589 155.816C50.589 167.142 59.004 176.535 69.9091 178.082C67.2059 181.864 65.7422 186.379 65.7422 191.122C65.7422 203.524 75.8321 213.614 88.2344 213.614H93.2424C90.7116 217.253 89.2222 221.667 89.2222 226.426C89.2222 238.828 99.3121 248.917 111.714 248.917H185.974C198.377 248.917 208.466 238.827 208.466 226.426C208.466 221.667 206.977 217.253 204.446 213.614H209.459C215.457 213.614 221.104 211.276 225.363 207.027C229.612 202.779 231.952 197.13 231.952 191.122C231.952 186.264 230.399 181.766 227.77 178.085C232.577 177.412 237.016 175.213 240.508 171.72C244.756 167.475 247.096 161.827 247.096 155.819ZM111.713 72.3995H185.973C193.038 72.3995 198.785 78.1473 198.785 85.2113C198.785 92.2757 193.038 98.0235 185.973 98.0235H111.713C104.648 98.0235 98.9007 92.2762 98.9007 85.2113C98.9007 78.1463 104.648 72.3995 111.713 72.3995ZM79.1731 111.46C81.5922 109.04 84.8097 107.708 88.2334 107.708H209.457C216.523 107.708 222.271 113.452 222.271 120.513C222.271 123.942 220.939 127.158 218.518 129.574C216.099 131.994 212.881 133.326 209.457 133.326H177.099C170.471 125.018 160.272 119.68 148.843 119.68C137.414 119.68 127.215 125.018 120.587 133.326H88.2324C81.1675 133.326 75.4196 127.578 75.4196 120.513C75.4206 117.088 76.751 113.875 79.1731 111.46ZM148.843 182.281C134.253 182.281 122.383 170.41 122.383 155.821C122.383 141.231 134.253 129.36 148.843 129.36C163.433 129.36 175.304 141.231 175.304 155.821C175.304 170.41 163.433 182.281 148.843 182.281ZM60.2665 155.819C60.2665 152.402 61.6004 149.183 64.0146 146.763C66.444 144.34 69.6635 143.006 73.0798 143.006H115.058C113.541 146.991 112.703 151.309 112.703 155.821C112.703 160.331 113.541 164.647 115.057 168.633H73.0807C66.0143 168.632 60.2665 162.884 60.2665 155.819ZM198.786 226.429C198.786 233.494 193.038 239.241 185.974 239.241H111.713C104.648 239.241 98.9007 233.493 98.9007 226.429C98.9007 219.37 104.638 213.628 111.695 213.617H185.993C193.048 213.627 198.786 219.37 198.786 226.429ZM218.523 200.18C216.094 202.603 212.875 203.937 209.458 203.937H88.2329C81.168 203.937 75.4201 198.19 75.4201 191.125C75.4201 187.701 76.7525 184.484 79.1687 182.068C81.5976 179.646 84.8166 178.311 88.2334 178.311H120.585C127.213 186.621 137.413 191.96 148.843 191.96C160.274 191.96 170.474 186.621 177.101 178.311H209.458C216.524 178.311 222.272 184.059 222.272 191.124C222.271 194.547 220.939 197.765 218.523 200.18ZM233.663 164.879C231.244 167.3 228.026 168.632 224.603 168.632H182.629C184.145 164.647 184.983 160.331 184.983 155.82C184.983 151.308 184.145 146.991 182.628 143.005H224.604C231.669 143.005 237.416 148.753 237.416 155.818C237.416 159.241 236.083 162.459 233.663 164.879Z" fill="#5B4625"/>
</svg>
