<svg width="306" height="397" viewBox="0 0 306 397" fill="none" xmlns="http://www.w3.org/2000/svg">
<ellipse cx="148.419" cy="72.6599" rx="46.1159" ry="46.116" fill="#5B4625"/>
<path d="M148.789 73.791C184.636 73.7912 213.695 102.851 213.695 138.698C213.695 174.545 184.635 203.604 148.789 203.604C112.941 203.604 83.8814 174.545 83.8813 138.698C83.8813 102.851 112.941 73.791 148.789 73.791Z" fill="#F3BA3C" stroke="#5B4625" stroke-width="3"/>
<path d="M162.771 28.7249C163.15 27.5842 164.677 24.5296 166.654 21.4003C168.766 18.0581 171.682 14.5849 178.499 9.53984C184.34 5.21748 187.514 6.27089 189.495 5.44216C191.395 4.64739 193.769 4.35698 197.336 4.03735C198.011 3.97687 197.987 3.46892 197.797 3.2737C197.608 3.07848 197.229 3.07848 196.971 3.26796C196.417 3.67386 196.329 4.60578 196.391 5.17996C196.419 5.44915 197.083 5.37518 197.533 5.24886C198.411 5.00246 199.005 4.23066 199.325 3.46701C199.475 3.1068 199.265 2.70336 199.011 2.44498C198.491 1.917 197.608 1.93014 196.907 2.11961C196.547 2.21706 196.333 2.68805 196.203 3.07274C196.073 3.45744 196.073 3.83639 196.262 4.09477C196.668 4.64826 197.979 4.60961 199.191 4.42013C199.644 4.23066 199.771 3.8517 199.836 3.46701C199.901 3.08231 199.901 2.70336 199.901 2.31292" stroke="#5B4625" stroke-width="3" stroke-linecap="round"/>
<path d="M137.22 28.9197C136.841 27.779 135.313 24.7244 133.336 21.5952C131.225 18.2529 128.309 14.7797 121.491 9.73467C115.65 5.4123 112.477 6.46571 110.496 5.63699C108.596 4.84222 106.222 4.5518 102.655 4.23218C101.979 4.1717 102.004 3.66375 102.193 3.46853C102.383 3.27331 102.762 3.27331 103.02 3.46279C103.574 3.86868 103.661 4.80061 103.6 5.37478C103.571 5.64398 102.907 5.57 102.457 5.44368C101.58 5.19729 100.986 4.42548 100.666 3.66183C100.515 3.30163 100.725 2.89818 100.98 2.6398C101.5 2.11183 102.383 2.12496 103.083 2.31444C103.443 2.41189 103.657 2.88287 103.788 3.26757C103.918 3.65226 103.918 4.03122 103.728 4.28959C103.322 4.84309 102.011 4.80444 100.8 4.61496C100.346 4.42548 100.22 4.04653 100.155 3.66183C100.09 3.27714 100.09 2.89818 100.09 2.50774" stroke="#5B4625" stroke-width="3" stroke-linecap="round"/>
<path d="M200.048 108.967C200.117 108.785 200.504 109.55 200.649 109.553C201.232 109.58 201.59 110.079 202.099 110.255C202.492 110.403 203.005 109.982 203.115 110.621C203.184 110.563 203.445 110.473 203.517 110.419C204.712 110.204 205.698 110.159 208.075 110.578C209.166 110.94 211.657 110.774 214.658 114.111C215.96 115.759 216.159 117.493 216.014 118.292C215.867 119.119 215.521 119.412 215.184 119.432C215.184 119.432 215.184 119.432 215.184 119.432C215.126 119.435 215.068 119.429 215.008 119.415C214.718 119.342 214.451 118.905 213.927 118.176C213.433 117.459 212.426 116.538 211.535 116.322C209.729 115.928 209.377 116.847 209.224 117.401C209.112 118.025 208.935 120.38 209.108 122.631C209.245 124.888 210.116 126.973 210.613 127.079C211.121 127.18 211.271 126.945 211.247 126.66L211.537 126.514C210.48 126.557 209.485 126.088 209.288 126.233C209.086 126.385 209.064 127.189 208.818 127.42C208.015 128.165 207.42 127.784 207.228 129.952C206.606 129.034 205.992 128.11 205.412 127.175C205.157 127.761 204.215 126.572 204.018 126.705C203.853 126.815 203.954 127.657 203.777 127.745C203.576 127.849 203.011 127.061 202.662 127.292C202.084 127.667 202.498 129.817 202.183 130.182C201.851 130.561 200.955 129.555 200.632 130.423C200.625 130.672 200.618 130.921 200.61 131.17C200.781 131.689 200.952 132.208 201.123 132.727C200.927 133.034 200.556 131.975 200.317 132.01C200.042 132.05 200.14 133.112 199.952 133.151C199.794 133.182 199.404 132.402 199.221 132.499C198.952 132.635 199.286 133.815 199.181 134.073C199.139 134.175 198.147 135.091 198.093 135.112C197.623 135.266 197.207 133.642 196.797 133.582C195.639 133.427 194.853 134.981 193.972 135.692C193.586 136.008 193.1 136.011 192.616 135.838C192.416 131.498 190.222 128.547 192.163 134.998C191.472 134.167 191.519 136.008 190.991 135.804C190.645 135.672 190.265 134.8 189.846 134.912C189.123 135.109 188.846 137.675 187.767 133.709L187.81 133.7C187.769 133.551 187.726 133.393 187.683 133.225C186.955 134.239 185.841 132.694 186.345 136.898C186.161 137.199 185.071 134.852 184.748 134.567C184.437 134.303 182.342 133.549 182.026 133.542C181.705 133.537 181.159 133.568 180.964 133.98C180.724 134.49 181.263 138.841 179.781 133.907C179.179 134.434 178.91 134.332 178.185 133.854C178.053 133.768 177.911 133.021 177.845 133.032C177.708 133.055 177.572 133.648 177.339 133.757C176.954 133.936 176.467 132.396 176.912 134.797C176.712 135.246 176.514 135.693 176.314 136.141C176.144 135.691 175.974 135.241 175.806 134.791C175.746 135.321 175.69 135.851 175.626 136.381C175.23 132.866 174.567 135.083 175.207 137.035C174.57 136.396 173.944 135.753 173.318 135.109C172.783 131.129 172.124 134.821 172.542 136.966C172.481 136.972 172.421 136.977 172.361 136.983C171.691 136.003 171.334 136.937 170.602 136.317C169.872 135.696 169.874 135.301 169.431 133.497C169.301 133.622 169.166 133.747 169.032 133.872C168.93 138.996 167.915 130.288 167.092 134.311C166.824 133.291 166.545 132.801 166.289 132.637C165.63 132.317 165.074 133.327 164.594 134.008C164.515 134.125 164.552 134.742 164.443 134.94C164.176 135.416 163.412 134.657 163.523 136.646C163.226 136.082 162.976 135.515 162.697 134.947C162.505 135.316 162.321 135.684 162.12 136.052C162.137 136.673 162.154 137.295 162.171 137.917C161.703 135.809 161.083 136.634 160.759 136.13C160.695 136.027 160.668 135.17 160.476 134.937C160.261 134.661 159.826 134.916 159.572 134.647C159.468 135.598 159.361 136.548 159.25 137.498C158.744 138.011 158.618 135.5 158.337 135.301C158.28 135.268 157.374 135.432 157.318 135.483C156.895 135.898 156.972 138.041 155.795 137.546C155.59 137.456 155.447 136.711 155.257 136.674C154.928 136.609 153.848 138.24 153.693 139.784C153.383 137.828 152.256 138.561 151.969 137.981C151.883 137.803 151.934 136.569 151.656 136.288C151.44 136.06 150.766 137.007 150.468 136.82C150.165 136.618 150.128 135.575 149.993 135.491C149.864 135.413 149.679 136.24 149.494 136.221C148.916 136.148 148.525 134.763 148.07 134.7C147.443 134.607 146.628 137.025 145.986 138.071C145.865 137.898 145.783 137.355 145.641 137.336C143.886 137.089 141.96 136.415 140.282 135.671C139.497 135.33 137.955 131.726 137.737 137.366C137.397 138.111 136.238 136.663 135.576 135.99C135.409 135.818 135.275 135.698 135.197 135.68C134.812 135.589 134.354 136.539 134.045 136.507C133.111 136.409 132.579 135.591 131.319 136.275C130.994 136.454 130.487 137.58 130.318 137.537C130.114 137.483 130.083 136.308 129.829 136.19C129.222 135.919 127.976 136.087 127.404 135.781C127.3 135.723 127.44 134.718 127.339 134.378C126.946 133.049 126.246 133.029 125.778 136.234C125.322 134.281 124.29 135.791 123.536 135.751C121.949 135.662 119.295 134.351 117.671 135.393C116.641 136.05 116.352 137.474 115.363 135.974C115.143 135.641 114.949 135.214 114.681 134.815C114.057 133.875 113.945 131.098 112.607 134.103C111.918 133.081 111.065 133.487 111.069 130.641C110.833 131.266 110.597 131.89 110.36 132.514C110.249 132.503 110.13 132.491 110.016 132.479C110.136 131.857 110.256 131.236 110.376 130.614C109.963 130.41 109.239 131.052 108.571 131.604C108.104 132.03 107.678 132.411 107.425 132.337C106.438 132.044 104.194 130.45 103.483 129.424C103.1 128.874 102.794 130.194 103.103 127.413C102.955 127.579 102.807 127.746 102.659 127.913C102.466 128.495 102.276 129.078 102.087 129.661C101.488 129.561 100.964 128.496 100.399 128.408C99.348 128.24 97.6878 129.704 96.8312 128.521C96.6137 128.222 96.4024 126.942 96.1464 126.937C96.0749 126.936 96.0079 127.013 95.9436 127.138C95.635 127.654 95.3802 129 94.9357 128.999C93.9829 128.993 92.4259 126.452 91.5486 126.579C91.2886 126.616 91.1183 127.382 90.9381 127.454C90.1851 127.762 89.5859 127.663 88.8826 128.83C88.2928 126.803 88.4498 124.23 88.3044 121.62C88.2126 119.651 87.6975 115.088 87.5586 113.369C87.4805 112.16 87.7752 110.606 87.6718 109.275C89.016 108.228 89.3835 109.427 90.1319 111.336C91.6598 111.342 93.108 111.37 94.5463 111.398C94.6245 112.131 94.702 112.865 94.7792 113.599C94.7791 113.6 94.779 113.602 94.7789 113.604C95.2647 114.479 95.6298 112.63 95.9537 112.228C96.3068 111.789 96.6867 111.446 97.0854 111.184C100.824 109.135 105.863 112.676 108.464 113.75C109.131 114.004 111.579 113.611 111.738 114.874C111.778 115.202 111.529 116.294 111.642 116.374C111.988 116.28 112.327 116.185 112.675 116.093C113.545 115.818 114.425 115.537 115.306 115.249C117.053 117.466 119.676 116.581 121.945 116.787C127.439 117.285 132.916 117.51 138.136 118.297C138.799 118.396 139.427 118.5 140.082 118.618C141.216 118.827 142.765 118.177 143.816 118.843C144.242 119.118 144.257 120.931 145.012 119.665C144.966 120.148 144.92 120.63 144.873 121.112C145.463 120.588 145.941 119.531 146.541 119.479C147.055 119.439 148.388 119.493 148.818 119.715C149.039 119.828 148.876 120.722 149.089 120.736C149.467 120.754 150.343 119.57 150.854 119.607C151.31 119.642 152.012 120.736 152.373 120.607C153.684 120.154 155.117 118.68 156.414 119.137C156.765 119.267 157.216 120.453 157.326 120.423C157.545 120.36 157.648 119.221 157.798 119.078C158.558 118.354 159.707 119.718 160.435 119.764C161.918 119.872 163.801 119.617 164.634 119.443C165.509 119.294 166.385 119.167 167.257 119.12C168.854 119.037 171.453 118.443 173.049 119.051C173.393 119.183 173.51 120.429 173.778 120.386C174.072 120.337 174.094 119.478 174.221 119.388C175.097 118.76 177.034 117.556 178.081 118.239C178.282 118.371 178.583 119.311 178.684 119.289C178.736 119.279 178.731 118.601 178.881 118.504C180.203 117.643 181.31 117.825 182.756 117.767C183.306 117.744 183.86 117.65 184.419 117.514C184.427 117.511 184.453 117.509 184.461 117.506C186.771 116.959 189.105 115.77 191.495 115.804C192.138 115.815 192.984 117.612 193.065 117.574C193.249 117.494 193.085 116.196 193.406 115.796C194.455 114.481 196.466 115.446 197.497 114.524C198.007 114.07 198.387 112.272 198.835 111.777C199.198 111.383 200.35 111.742 200.326 110.992C200.313 110.54 199.975 109.172 200.048 108.967ZM189.174 133.94C188.804 131.717 188.274 133.737 188.857 134.851C188.99 135.101 189.265 134.518 189.174 133.94ZM143.713 133.174C143.652 133.814 143.591 134.455 143.53 135.095C143.684 134.842 143.834 134.59 143.991 134.337C143.961 133.945 143.93 133.553 143.904 133.161C143.84 133.165 143.777 133.17 143.713 133.174Z" fill="#5B4625"/>
<path d="M200.048 148.073C200.117 147.891 200.504 148.656 200.649 148.659C201.232 148.687 201.59 149.185 202.099 149.362C202.492 149.509 203.005 149.088 203.115 149.727C203.184 149.669 203.445 149.58 203.517 149.525C204.712 149.31 205.698 149.265 208.075 149.685C209.166 150.046 211.657 149.881 214.658 153.218C215.96 154.866 216.159 156.6 216.014 157.398C215.867 158.225 215.521 158.519 215.184 158.538C215.184 158.538 215.184 158.538 215.184 158.538C215.126 158.541 215.068 158.535 215.008 158.521C214.718 158.449 214.451 158.012 213.927 157.282C213.433 156.565 212.426 155.644 211.535 155.428C209.729 155.034 209.377 155.954 209.224 156.507C209.112 157.131 208.935 159.487 209.108 161.737C209.245 163.995 210.116 166.079 210.613 166.185C211.121 166.286 211.271 166.051 211.247 165.766L211.537 165.62C210.48 165.663 209.485 165.194 209.288 165.339C209.086 165.491 209.064 166.295 208.818 166.526C208.015 167.271 207.42 166.891 207.228 169.059C206.606 168.141 205.992 167.217 205.412 166.281C205.157 166.868 204.215 165.678 204.018 165.811C203.853 165.922 203.954 166.763 203.777 166.851C203.576 166.955 203.011 166.168 202.662 166.398C202.084 166.773 202.498 168.924 202.183 169.288C201.851 169.667 200.955 168.661 200.632 169.529C200.625 169.778 200.618 170.027 200.61 170.276C200.781 170.795 200.952 171.314 201.123 171.833C200.927 172.14 200.556 171.081 200.317 171.116C200.042 171.156 200.14 172.219 199.952 172.257C199.794 172.289 199.404 171.509 199.221 171.605C198.952 171.741 199.286 172.921 199.181 173.18C199.139 173.281 198.147 174.197 198.093 174.218C197.623 174.372 197.207 172.748 196.797 172.688C195.639 172.534 194.853 174.088 193.972 174.798C193.586 175.114 193.1 175.117 192.616 174.945C192.416 170.604 190.222 167.653 192.163 174.104C191.472 173.273 191.519 175.114 190.991 174.911C190.645 174.778 190.265 173.907 189.846 174.018C189.123 174.216 188.846 176.781 187.767 172.816L187.81 172.807C187.769 172.658 187.726 172.499 187.683 172.331C186.955 173.345 185.841 171.801 186.345 176.005C186.161 176.305 185.071 173.958 184.748 173.674C184.437 173.409 182.342 172.655 182.026 172.648C181.705 172.644 181.159 172.674 180.964 173.087C180.724 173.596 181.263 177.947 179.781 173.013C179.179 173.541 178.91 173.439 178.185 172.961C178.053 172.874 177.911 172.128 177.845 172.138C177.708 172.162 177.572 172.755 177.339 172.863C176.954 173.042 176.467 171.502 176.912 173.904C176.712 174.352 176.514 174.8 176.314 175.247C176.144 174.798 175.974 174.348 175.806 173.898C175.746 174.428 175.69 174.957 175.626 175.488C175.23 171.972 174.567 174.19 175.207 176.141C174.57 175.502 173.944 174.86 173.318 174.216C172.783 170.235 172.124 173.927 172.542 176.072C172.481 176.078 172.421 176.084 172.361 176.089C171.691 175.109 171.334 176.044 170.602 175.423C169.872 174.803 169.874 174.407 169.431 172.604C169.301 172.728 169.166 172.854 169.032 172.979C168.93 178.103 167.915 169.394 167.092 173.418C166.824 172.398 166.545 171.907 166.289 171.743C165.63 171.424 165.074 172.434 164.594 173.114C164.515 173.232 164.552 173.848 164.443 174.046C164.176 174.522 163.412 173.763 163.523 175.753C163.226 175.189 162.976 174.621 162.697 174.053C162.505 174.422 162.321 174.79 162.12 175.158C162.137 175.78 162.154 176.402 162.171 177.023C161.703 174.915 161.083 175.74 160.759 175.236C160.695 175.134 160.668 174.276 160.476 174.043C160.261 173.767 159.826 174.022 159.572 173.754C159.468 174.704 159.361 175.654 159.25 176.604C158.744 177.117 158.618 174.606 158.337 174.408C158.28 174.374 157.374 174.538 157.318 174.59C156.895 175.004 156.972 177.148 155.795 176.653C155.59 176.563 155.447 175.818 155.257 175.781C154.928 175.716 153.848 177.347 153.693 178.89C153.383 176.935 152.256 177.667 151.969 177.088C151.883 176.91 151.934 175.675 151.656 175.394C151.44 175.166 150.766 176.114 150.468 175.927C150.165 175.725 150.128 174.681 149.993 174.598C149.864 174.52 149.679 175.346 149.494 175.327C148.916 175.254 148.525 173.869 148.07 173.806C147.443 173.714 146.628 176.131 145.986 177.177C145.865 177.004 145.783 176.461 145.641 176.443C143.886 176.195 141.96 175.521 140.282 174.777C139.497 174.436 137.955 170.832 137.737 176.472C137.397 177.218 136.238 175.769 135.576 175.096C135.409 174.925 135.275 174.805 135.197 174.786C134.812 174.696 134.354 175.646 134.045 175.614C133.111 175.516 132.579 174.698 131.319 175.381C130.994 175.56 130.487 176.686 130.318 176.644C130.114 176.59 130.083 175.414 129.829 175.296C129.222 175.026 127.976 175.193 127.404 174.887C127.3 174.829 127.44 173.824 127.339 173.484C126.946 172.156 126.246 172.135 125.778 175.34C125.322 173.387 124.29 174.898 123.536 174.857C121.949 174.768 119.295 173.458 117.671 174.499C116.641 175.156 116.352 176.58 115.363 175.08C115.143 174.747 114.949 174.321 114.681 173.921C114.057 172.982 113.945 170.204 112.607 173.21C111.918 172.188 111.065 172.593 111.069 169.747C110.833 170.372 110.597 170.996 110.36 171.62C110.249 171.61 110.13 171.597 110.016 171.585C110.136 170.964 110.256 170.342 110.376 169.72C109.963 169.516 109.239 170.159 108.571 170.71C108.104 171.137 107.678 171.517 107.425 171.443C106.438 171.15 104.194 169.556 103.483 168.53C103.1 167.98 102.794 169.3 103.103 166.52C102.955 166.686 102.807 166.852 102.659 167.019C102.466 167.601 102.276 168.184 102.087 168.767C101.488 168.667 100.964 167.603 100.399 167.514C99.348 167.346 97.6878 168.81 96.8312 167.628C96.6137 167.328 96.4024 166.049 96.1464 166.044C96.0749 166.042 96.0079 166.119 95.9436 166.244C95.635 166.761 95.3802 168.106 94.9357 168.105C93.9829 168.1 92.4259 165.558 91.5486 165.686C91.2886 165.722 91.1183 166.489 90.9381 166.56C90.1851 166.868 89.5859 166.769 88.8826 167.936C88.2928 165.909 88.4498 163.336 88.3044 160.727C88.2126 158.757 87.6975 154.195 87.5586 152.476C87.4805 151.267 87.7752 149.713 87.6718 148.382C89.016 147.334 89.3835 148.534 90.1319 150.443C91.6598 150.448 93.108 150.476 94.5463 150.504C94.6245 151.238 94.702 151.971 94.7792 152.705C94.7791 152.707 94.779 152.708 94.7789 152.71C95.2647 153.585 95.6298 151.737 95.9537 151.334C96.3068 150.895 96.6867 150.553 97.0854 150.291C100.824 148.241 105.863 151.783 108.464 152.857C109.131 153.11 111.579 152.717 111.738 153.98C111.778 154.308 111.529 155.4 111.642 155.48C111.988 155.386 112.327 155.291 112.675 155.199C113.545 154.924 114.425 154.643 115.306 154.356C117.053 156.573 119.676 155.688 121.945 155.894C127.439 156.391 132.916 156.616 138.136 157.403C138.799 157.503 139.427 157.606 140.082 157.725C141.216 157.933 142.765 157.283 143.816 157.95C144.242 158.225 144.257 160.037 145.012 158.772C144.966 159.254 144.92 159.736 144.873 160.219C145.463 159.695 145.941 158.637 146.541 158.585C147.055 158.546 148.388 158.599 148.818 158.822C149.039 158.934 148.876 159.829 149.089 159.842C149.467 159.86 150.343 158.676 150.854 158.714C151.31 158.748 152.012 159.842 152.373 159.714C153.684 159.261 155.117 157.786 156.414 158.244C156.765 158.373 157.216 159.559 157.326 159.529C157.545 159.466 157.648 158.328 157.798 158.184C158.558 157.461 159.707 158.824 160.435 158.871C161.918 158.978 163.801 158.723 164.634 158.55C165.509 158.401 166.385 158.274 167.257 158.226C168.854 158.143 171.453 157.549 173.049 158.157C173.393 158.289 173.51 159.536 173.778 159.492C174.072 159.444 174.094 158.584 174.221 158.494C175.097 157.867 177.034 156.662 178.081 157.346C178.282 157.478 178.583 158.417 178.684 158.395C178.736 158.386 178.731 157.707 178.881 157.61C180.203 156.749 181.31 156.931 182.756 156.873C183.306 156.85 183.86 156.756 184.419 156.62C184.427 156.617 184.453 156.615 184.461 156.612C186.771 156.066 189.105 154.876 191.495 154.911C192.138 154.921 192.984 156.718 193.065 156.68C193.249 156.6 193.085 155.303 193.406 154.902C194.455 153.588 196.466 154.553 197.497 153.631C198.007 153.177 198.387 151.378 198.835 150.884C199.198 150.49 200.35 150.848 200.326 150.098C200.313 149.646 199.975 148.278 200.048 148.073ZM189.174 173.046C188.804 170.824 188.274 172.843 188.857 173.957C188.99 174.208 189.265 173.624 189.174 173.046ZM143.713 172.28C143.652 172.921 143.591 173.561 143.53 174.201C143.684 173.949 143.834 173.696 143.991 173.443C143.961 173.051 143.93 172.659 143.904 172.267C143.84 172.272 143.777 172.276 143.713 172.28Z" fill="#5B4625"/>
<path d="M179.23 186.642C179.265 186.53 179.509 186.997 179.593 186.999C179.93 187.014 180.148 187.319 180.443 187.427C180.67 187.517 180.933 187.268 180.978 187.67C181.021 187.631 181.188 187.569 181.233 187.532C181.983 187.371 182.583 187.303 184.179 187.531C184.6 187.604 185.131 187.689 185.904 187.978C186.639 188.246 187.828 188.92 188.511 189.989C189.202 191.052 189.205 191.954 189.103 192.392C188.989 192.83 188.78 192.992 188.569 193.002C188.569 193.002 188.569 193.002 188.569 193.002C188.534 193.003 188.498 193 188.461 192.993C188.284 192.953 188.117 192.73 187.831 192.338C187.561 191.965 187.051 191.413 186.499 191.209C185.354 190.827 185.036 191.404 184.943 191.739C184.858 192.12 184.716 193.568 184.821 194.955C184.903 196.346 185.498 197.624 185.843 197.673C186.202 197.72 186.309 197.556 186.301 197.37L186.484 197.27C185.841 197.314 185.232 197.049 185.118 197.14C184.995 197.237 184.998 197.732 184.853 197.877C184.378 198.347 184.01 198.121 183.931 199.455C183.535 198.899 183.148 198.338 182.783 197.769C182.641 198.132 182.049 197.411 181.936 197.494C181.839 197.563 181.915 198.079 181.808 198.135C181.69 198.2 181.336 197.722 181.132 197.866C180.789 198.102 181.077 199.418 180.89 199.645C180.698 199.88 180.145 199.269 179.964 199.805C179.963 199.958 179.963 200.111 179.962 200.264C180.072 200.582 180.183 200.899 180.293 201.217C180.18 201.407 179.944 200.759 179.799 200.783C179.634 200.809 179.71 201.461 179.598 201.486C179.505 201.506 179.256 201.03 179.15 201.091C178.991 201.176 179.209 201.899 179.15 202.058C179.122 202.122 178.548 202.69 178.512 202.704C178.233 202.802 177.963 201.806 177.714 201.773C177.021 201.685 176.571 202.646 176.054 203.088C175.829 203.284 175.536 203.29 175.246 203.186C175.065 200.521 173.715 198.721 174.964 202.672C174.541 202.166 174.592 203.297 174.275 203.175C174.068 203.096 173.826 202.563 173.578 202.634C173.133 202.764 173.009 204.459 172.24 201.615C172.233 201.627 172.225 201.638 172.217 201.649L172.244 201.643C171.82 202.203 171.165 201.343 171.516 203.875C171.409 204.061 170.726 202.626 170.529 202.453C170.34 202.292 169.077 201.841 168.887 201.839C168.697 201.838 168.369 201.86 168.258 202.114C168.12 202.429 168.496 205.1 167.55 202.076C167.196 202.403 167.034 202.342 166.594 202.052C166.515 202 166.422 201.542 166.382 201.549C166.301 201.564 166.225 201.929 166.089 201.997C165.86 202.109 165.551 201.165 165.844 202.639C165.732 202.915 165.615 203.192 165.502 203.468C165.395 203.192 165.289 202.917 165.183 202.641C165.153 202.967 165.124 203.293 165.093 203.619C164.818 201.46 164.445 202.827 164.849 204.023C164.462 203.634 164.079 203.242 163.699 202.849C163.338 200.404 162.982 202.677 163.254 203.994C163.219 203.998 163.182 204.002 163.146 204.006C162.734 203.406 162.531 203.982 162.087 203.604C161.642 203.226 161.643 202.982 161.36 201.875C161.282 201.953 161.205 202.03 161.125 202.108C161.112 205.259 160.423 199.909 159.97 202.386C159.783 201.702 159.599 201.406 159.432 201.337C159.047 201.224 158.733 201.81 158.459 202.211C158.413 202.284 158.439 202.663 158.374 202.785C158.211 203.079 157.75 202.614 157.824 203.838C157.646 203.491 157.488 203.143 157.321 202.794C157.202 203.021 157.097 203.248 156.977 203.474C156.988 203.857 157 204.24 157.011 204.622C156.722 203.326 156.352 203.834 156.157 203.524C156.119 203.461 156.104 202.933 155.985 202.79C155.856 202.621 155.599 202.778 155.443 202.612C155.381 203.197 155.317 203.782 155.251 204.367C154.948 204.682 154.869 203.137 154.703 203.015C154.67 202.994 154.125 203.095 154.092 203.127C153.837 203.381 153.881 204.701 153.174 204.395C153.051 204.34 152.967 203.881 152.854 203.858C152.655 203.818 152.006 204.82 151.906 205.769C151.726 204.566 151.047 205.014 150.877 204.657C150.826 204.548 150.862 203.788 150.696 203.615C150.567 203.474 150.16 204.056 149.983 203.94C149.801 203.815 149.785 203.173 149.704 203.121C149.627 203.073 149.512 203.581 149.401 203.569C149.055 203.523 148.829 202.67 148.558 202.629C148.182 202.571 147.682 204.056 147.289 204.697C147.218 204.591 147.172 204.256 147.087 204.244C146.038 204.087 144.889 203.665 143.891 203.201C143.423 202.989 142.534 200.766 142.353 204.233C142.142 204.691 141.459 203.792 141.07 203.376C140.972 203.271 140.894 203.197 140.847 203.185C140.618 203.128 140.334 203.71 140.149 203.689C139.591 203.624 139.281 203.118 138.52 203.532C138.323 203.64 138.007 204.33 137.906 204.303C137.784 204.269 137.779 203.546 137.628 203.472C137.268 203.303 136.52 203.399 136.181 203.208C136.12 203.171 136.216 202.554 136.159 202.345C135.94 201.526 135.522 201.51 135.203 203.477C134.954 202.274 134.318 203.196 133.867 203.167C132.918 203.103 131.347 202.281 130.36 202.911C129.734 203.308 129.541 204.181 128.969 203.253C128.842 203.046 128.732 202.783 128.577 202.535C128.217 201.954 128.191 200.247 127.344 202.084C126.947 201.451 126.428 201.693 126.474 199.946C126.323 200.327 126.171 200.709 126.02 201.091C125.954 201.083 125.882 201.074 125.814 201.066C125.895 200.685 125.977 200.305 126.059 199.924C125.812 199.794 125.36 200.193 124.945 200.529C124.664 200.782 124.41 201.006 124.263 200.959C123.681 200.773 122.38 199.781 121.978 199.148C121.76 198.809 121.559 199.618 121.785 197.912C121.695 198.013 121.605 198.115 121.515 198.217C121.392 198.573 121.271 198.93 121.151 199.287C120.8 199.224 120.508 198.568 120.178 198.512C119.562 198.404 118.583 199.301 118.098 198.573C117.974 198.388 117.861 197.601 117.711 197.598C117.665 197.596 117.621 197.655 117.578 197.749C117.398 198.084 117.241 198.865 116.984 198.864C116.415 198.858 115.502 197.291 114.981 197.368C114.826 197.39 114.721 197.861 114.614 197.905C114.167 198.093 113.812 198.032 113.395 198.749C113.058 197.501 113.158 195.918 113.079 194.312C113.031 193.1 112.728 190.292 112.641 189.234C112.593 188.49 112.774 187.534 112.711 186.715C113.54 186.071 113.757 186.811 114.201 187.987C115.118 187.993 115.983 188.013 116.841 188.033C116.884 188.485 116.926 188.937 116.968 189.388C116.968 189.389 116.968 189.39 116.968 189.391C117.253 189.931 117.48 188.794 117.675 188.547C117.883 188.283 118.107 188.076 118.34 187.917C120.622 186.646 123.653 188.874 125.192 189.554C125.588 189.715 127.063 189.493 127.136 190.269C127.155 190.471 126.987 191.14 127.053 191.189C127.259 191.136 127.459 191.081 127.665 191.028C128.189 190.863 128.72 190.695 129.252 190.523C130.253 191.894 131.829 191.366 133.175 191.505C136.434 191.841 139.687 192.006 142.772 192.509C143.165 192.572 143.537 192.638 143.924 192.713C144.595 192.846 145.52 192.451 146.136 192.864C146.386 193.034 146.38 194.149 146.838 193.373C146.807 193.669 146.776 193.966 146.744 194.262C147.098 193.942 147.39 193.292 147.745 193.262C148.05 193.239 148.84 193.275 149.092 193.413C149.222 193.482 149.12 194.032 149.246 194.041C149.471 194.053 149.995 193.326 150.298 193.35C150.566 193.372 150.977 194.046 151.191 193.968C151.969 193.691 152.82 192.785 153.582 193.067C153.79 193.147 154.052 193.877 154.117 193.859C154.249 193.82 154.309 193.12 154.398 193.031C154.846 192.586 155.52 193.425 155.948 193.453C156.8 193.519 157.912 193.36 158.335 193.258C158.865 193.161 159.397 193.076 159.924 193.043C160.873 192.986 162.406 192.611 163.362 192.977C163.568 193.057 163.652 193.823 163.81 193.795C163.984 193.763 163.988 193.235 164.062 193.179C164.574 192.79 165.71 192.04 166.341 192.455C166.462 192.535 166.652 193.111 166.712 193.097C166.743 193.091 166.731 192.674 166.819 192.613C167.593 192.078 168.253 192.184 169.112 192.14C169.424 192.124 169.738 192.068 170.055 191.987C170.06 191.985 170.077 191.983 170.082 191.981C171.465 191.637 172.851 190.878 174.29 190.885C174.671 190.888 175.204 191.986 175.251 191.962C175.357 191.912 175.244 191.116 175.427 190.868C176.03 190.055 177.242 190.635 177.836 190.063C178.133 189.781 178.323 188.676 178.579 188.37C178.785 188.126 179.471 188.34 179.439 187.881C179.419 187.604 179.193 186.767 179.23 186.642ZM173.164 202.041C172.912 200.677 172.623 201.921 172.987 202.602C173.069 202.756 173.227 202.395 173.164 202.041ZM145.962 201.678C145.921 202.071 145.88 202.465 145.839 202.859C145.932 202.704 146.025 202.549 146.12 202.394C146.105 202.153 146.089 201.911 146.076 201.67C146.038 201.673 146 201.675 145.962 201.678Z" fill="#5B4625"/>
<path d="M140.993 203.46C141.394 204.091 142.085 205.011 142.488 205.959C142.959 207.067 143.295 208.005 143.496 209.12C143.93 211.535 144.102 213.985 144.13 215.423C144.148 216.295 144.274 218.009 144.36 220.082C144.387 220.736 144.616 220.56 144.79 220.329C145.568 219.295 147.31 216.719 148.789 214.404C149.472 213.335 150.597 210.903 152.093 208.227C152.968 206.662 153.368 205.88 153.427 205.592C153.668 204.409 150.039 205.705 149.055 205.505C147.922 205.274 146.015 204.786 144.508 204.641C144.276 204.618 144.105 204.555 144.074 204.64C143.963 204.943 144.502 205.358 144.933 205.703C145.818 206.41 147.435 206.337 150.106 206.969C150.766 207.125 151.23 207.087 151.009 207.087C148.706 207.087 147.904 206.627 146.841 206.54C145.597 206.438 144.967 206.339 144.651 206.338C144.495 206.338 144.392 206.565 144.419 206.71C144.552 207.431 145.88 207.546 147.434 208.005C149.394 208.585 150.317 209.043 150.576 209.016C150.697 209.003 150.664 208.703 150.578 208.529C150.493 208.354 150.322 208.24 150.063 208.267C148.844 208.393 147.452 208.758 146.206 208.612C145.825 208.568 145.314 208.411 144.91 208.41C143.958 208.408 146.975 209.387 148.757 209.934C149.156 210.057 149.393 210.022 149.396 210.108C149.4 210.193 149.172 210.364 148.855 210.395C147.526 210.526 146.754 209.622 145.545 209.618C145.334 209.618 145.425 209.96 145.568 210.135C146.29 211.013 148.011 210.768 148.762 211.229C148.939 211.339 149.106 211.459 149.08 211.546C148.842 212.347 147.1 211.176 146.12 210.915C145.84 210.84 145.49 210.886 145.371 211C145.252 211.114 145.366 211.342 145.653 211.516C147.023 212.35 147.899 212.497 148.187 212.669C148.327 212.753 148.36 212.954 148.162 213.043C146.977 213.568 146.177 212.844 145.457 212.727C144.828 212.626 145.656 214.733 145.34 216.551C145.202 217.344 146.747 215.265 147.151 214.173C147.627 212.886 147.666 209.699 148.357 205.876C148.644 204.284 148.592 203.364 148.563 202.78C148.535 202.196 148.478 201.968 147.707 201.879C145.47 201.621 143.074 201.792 141.523 201.619C138.93 201.331 136.397 200.756 135.729 200.697C134.488 200.588 139.653 201.215 143.011 201.386C144.78 201.476 146.654 201.899 148.278 202.075C151.201 202.392 153.589 202.08 155.343 201.821C157.376 201.521 159.119 201.333 161.018 200.9C162.23 200.64 163.095 200.468 163.554 200.381C163.841 200.352 164.24 200.352 164.479 200.179" stroke="#5B4625" stroke-width="3" stroke-linecap="round"/>
<path d="M89.1485 155.875C89.04 155.22 88.6027 153.691 86.7449 151.824C86.4209 151.498 86.084 152.139 86.0264 152.58C85.8102 154.235 86.952 155.539 87.7757 157.183C88.1621 158.831 88.2706 159.817 88.4893 160.473C88.5994 160.804 88.7079 161.129 89.1485 161.464" stroke="#5B4625" stroke-width="3" stroke-linecap="round"/>
<path d="M88.4909 117.403C88.3824 119.044 88.1621 121.441 87.9961 122.937C87.966 123.208 89.0236 122.454 89.0894 122.393C88.5041 122.658 87.5078 123.427 86.8518 124.03C86.5213 124.2 86.1958 124.091 86.1892 123.322" stroke="#5B4625" stroke-width="3" stroke-linecap="round"/>
<path d="M209.495 117.403C209.495 118.495 209.929 120.244 210.971 121.4C211.389 121.863 211.248 122.661 211.032 123.208C210.888 123.574 209.949 123.539 209.449 123.378C208.949 123.217 208.732 122.783 208.62 122.396C208.42 121.704 208.726 120.915 209.217 120.203C209.439 119.882 209.817 119.817 209.985 119.978C210.96 120.915 211.248 122.003 211.249 122.551C211.25 122.797 210.817 122.881 210.486 122.937C210.156 122.993 209.83 122.993 209.771 122.83C209.712 122.667 209.929 122.342 210.153 122.006" stroke="#5B4625" stroke-width="3" stroke-linecap="round"/>
<path d="M210.481 155.875C210.264 155.875 210.153 156.417 210.044 157.673C209.936 158.387 209.719 159.255 209.553 159.865C209.387 160.475 209.278 160.8 209.166 161.793" stroke="#5B4625" stroke-width="3" stroke-linecap="round"/>
<path d="M162.808 114.016C163.765 113.643 171.68 109.54 183.763 103.427C189.755 100.395 199.008 97.489 210.249 92.7872C216.802 90.0464 229.202 87.3177 238.836 86.1719C247.88 85.0963 256.117 85.6018 262.892 86.6347C271.957 88.0165 277.866 91.98 283.822 95.7533C287.625 98.1629 289.996 100.458 294.341 104.217C297.403 106.866 299.659 115.822 302.452 128.832C303.843 135.313 302.343 139.969 300.66 142.78C298.154 146.966 292.455 151.619 287.141 155.663C282.811 158.958 274.34 158.223 263.32 158.7C255.193 159.052 242.652 159.363 231.647 157.486C222.848 155.986 214.359 152.793 207.326 150.149C202.301 148.259 199.821 145.816 190.303 139.639C175.883 130.28 171.789 125.519 168.862 122.118C166.934 119.879 165.47 117.973 164.868 116.846C164.555 116.262 164.026 115.72 163.78 116.55C162.063 122.324 164.258 125.847 164.98 129.431C165.397 131.5 165.709 133.387 166.787 138.521C167.712 142.931 170.019 150.919 172.565 157.746C177.198 170.169 181.423 176.099 182.507 177.784C185.75 182.821 186.98 185.689 189.037 188.979C191.503 192.926 198.341 194.347 202.45 196.23C205.946 197.831 211.631 197.926 215.03 198.679C220.175 199.82 229.042 198.874 235.209 197.934C240.757 197.089 243.319 195.115 246.345 193.704C251.267 191.408 251.546 187.032 253.483 184.486C255.964 181.225 256.392 172.402 253.505 164.649C252.533 163.32 251.575 162.389 250.842 161.629C250.11 160.87 249.631 160.311 247.687 158.607" stroke="#5B4625" stroke-width="5" stroke-linecap="round"/>
<path d="M164.548 113.219C163.963 113.219 163.494 113.284 163.241 113.447C163.005 113.6 163.113 113.908 163.05 114.803C163.07 118.769 163.155 119.163 163.176 119.409C163.197 119.525 163.239 119.623 163.282 119.723" stroke="#5B4625" stroke-width="5" stroke-linecap="round"/>
<path d="M165.886 111.764C165.886 111.906 165.886 112.048 170.499 113.471C175.113 114.893 184.34 117.592 190.53 118.982C202.867 121.753 206.809 118.659 210.565 117.792C211.718 117.526 213.844 117.076 216.895 116.858C221.269 116.546 224.987 120.218 228.519 122.66C230.286 123.883 235.365 125.236 245.3 127.681C248.905 128.568 252.645 130.974 256.841 133.767C262.594 137.597 265.497 142.169 267.862 145.539C269.627 148.054 271.758 149.779 273.594 151.642C275.43 153.08 276.805 154.229 277.871 154.802C278.483 155.09 279.239 155.374 280.935 156.527" stroke="#5B4625" stroke-width="3" stroke-linecap="round"/>
<path d="M219.056 115.638C219.358 115.638 227.682 115.496 240.663 115.139C251.072 114.852 257.852 109.19 260.985 106.04C264.002 103.005 264.425 100.582 266.26 98.5009C268.091 96.4258 271.144 94.9865 273.211 94.0482C273.748 93.833 274.353 93.549 274.891 93.2606C275.43 92.9722 275.884 92.6881 276.351 92.8259" stroke="#5B4625" stroke-width="3" stroke-linecap="round"/>
<path d="M259.392 108.751C260.758 109.177 264.415 111.463 269.306 116.337C272.063 119.085 276.782 123.222 283.126 125.817C288.075 127.842 291.156 127.397 293.684 129.045C295.598 130.987 297.729 132.131 299.796 132.923C300.333 133.139 300.938 133.423 302.478 134.576" stroke="#5B4625" stroke-width="3" stroke-linecap="round"/>
<path d="M260.309 135.867C263.664 135.867 270.337 135.015 275.879 133.362C279.097 132.14 283.346 130.143 286.884 128.983C287.499 128.839 288.104 128.697 290.102 128.55" stroke="#5B4625" stroke-width="3" stroke-linecap="round"/>
<path d="M213.097 113.055C213.097 111.919 213.854 109.203 215.226 105.691C217.181 100.691 228.489 97.1558 232.188 93.4822C232.953 92.404 233.719 91.5388 234.482 90.6091C234.792 90.1055 234.943 89.5374 235.557 88.0912" stroke="#5B4625" stroke-width="3" stroke-linecap="round"/>
<path d="M192.929 118.22C197.165 119.641 202.372 122.645 207.712 126.443C211.305 128.999 214.459 130.69 216.748 133.052C219.656 136.054 219.203 142.995 219.59 147.478C219.817 148.909 219.973 150.635 220.124 152.355C220.275 153.08 220.578 153.506 220.431 153.945" stroke="#5B4625" stroke-width="3" stroke-linecap="round"/>
<path d="M241.974 126.398C241.213 127.255 239.086 129.54 236.634 132.342C235.678 133.435 235.254 135.992 234.796 139.074C234.242 142.802 238.756 146.189 239.831 148.055C241.662 150.355 245.008 152.352 249.599 156.512C250.376 157.384 250.527 157.81 251.141 158.249" stroke="#5B4625" stroke-width="3" stroke-linecap="round"/>
<path d="M167.404 127.535C186.169 146.302 189.254 152.667 191.101 159.739C192.323 164.418 192.338 169.143 195.557 180.677C196.956 186.496 197.261 189.098 197.722 190.828C197.879 191.699 197.879 192.558 198.803 194.309" stroke="#5B4625" stroke-width="3" stroke-linecap="round"/>
<path d="M196.032 177.833C208.943 174.373 217.531 170.913 222.952 166.577C227.727 162.232 231.116 160.203 232.959 159.626C233.887 159.336 234.801 159.049 234.819 159.622" stroke="#5B4625" stroke-width="3" stroke-linecap="round"/>
<path d="M220.967 167.427C223.728 167.427 232.289 170.288 239.88 175.791C242.512 179.559 244.35 183.591 246.201 187.359C246.816 188.231 247.73 189.089 249.595 189.974" stroke="#5B4625" stroke-width="3" stroke-linecap="round"/>
<path d="M204.344 175.231C208.019 176.09 215.389 180.122 219.415 183.747C222.998 186.973 225.88 190.529 229.265 193.434C230.193 194.015 231.107 194.587 232.035 195.025C232.963 195.463 233.877 195.749 234.819 196.044" stroke="#5B4625" stroke-width="3" stroke-linecap="round"/>
<path d="M143.192 114.016C142.235 113.643 134.32 109.54 122.237 103.427C116.245 100.395 106.992 97.489 95.7508 92.7872C89.1983 90.0464 76.7981 87.3177 67.164 86.1719C58.1202 85.0963 49.8835 85.6018 43.1076 86.6347C34.0432 88.0165 28.1341 91.98 22.178 95.7533C18.3746 98.1629 16.0044 100.458 11.6588 104.217C8.59655 106.866 6.34119 115.822 3.54816 128.832C2.15684 135.313 3.65698 139.969 5.34005 142.78C7.84639 146.966 13.545 151.619 18.859 155.663C23.1889 158.958 31.6598 158.223 42.6796 158.7C50.8072 159.052 63.348 159.363 74.3533 157.486C83.152 155.986 91.6411 152.793 98.6744 150.149C103.699 148.259 106.179 145.816 115.697 139.639C130.117 130.28 134.211 125.519 137.138 122.118C139.066 119.879 140.53 117.973 141.132 116.846C141.445 116.262 141.974 115.72 142.22 116.55C143.937 122.324 141.742 125.847 141.02 129.431C140.603 131.5 140.291 133.387 139.213 138.521C138.288 142.931 135.981 150.919 133.435 157.746C128.801 170.169 124.577 176.099 123.493 177.784C120.25 182.821 119.02 185.689 116.963 188.979C114.497 192.926 107.659 194.347 103.55 196.23C100.054 197.831 94.3688 197.926 90.97 198.679C85.8254 199.82 76.9577 198.874 70.7913 197.934C65.2434 197.089 62.6806 195.115 59.6554 193.704C54.7329 191.408 54.4539 187.032 52.5169 184.486C50.0356 181.225 49.6078 172.402 52.4951 164.649C53.4672 163.32 54.4248 162.389 55.1576 161.629C55.8903 160.87 56.3691 160.311 58.3133 158.607" stroke="#5B4625" stroke-width="5" stroke-linecap="round"/>
<path d="M141.452 113.219C142.037 113.219 142.506 113.284 142.759 113.447C142.994 113.6 142.887 113.908 142.95 114.803C142.93 118.769 142.845 119.163 142.824 119.409C142.803 119.525 142.761 119.623 142.718 119.723" stroke="#5B4625" stroke-width="5" stroke-linecap="round"/>
<path d="M140.114 111.764C140.114 111.906 140.114 112.048 135.501 113.471C130.887 114.893 121.66 117.592 115.47 118.982C103.133 121.753 99.1914 118.659 95.4351 117.792C94.2815 117.526 92.1555 117.076 89.1052 116.858C84.7312 116.546 81.0128 120.218 77.4811 122.66C75.7135 123.883 70.6355 125.236 60.7005 127.681C57.0947 128.568 53.3552 130.974 49.1589 133.767C43.4061 137.597 40.5028 142.169 38.1376 145.539C36.3726 148.054 34.2415 149.779 32.4058 151.642C30.5701 153.08 29.195 154.229 28.1293 154.802C27.5174 155.09 26.7611 155.374 25.0651 156.527" stroke="#5B4625" stroke-width="3" stroke-linecap="round"/>
<path d="M86.944 115.638C86.6415 115.638 78.3176 115.496 65.3368 115.139C54.9277 114.852 48.1483 109.19 45.0154 106.04C41.9981 103.005 41.5754 100.582 39.7396 98.5009C37.9091 96.4258 34.8558 94.9865 32.7886 94.0482C32.2523 93.833 31.6472 93.549 31.1087 93.2606C30.5701 92.9722 30.1163 92.6881 29.6488 92.8259" stroke="#5B4625" stroke-width="3" stroke-linecap="round"/>
<path d="M46.6081 108.751C45.2422 109.177 41.5845 111.463 36.6938 116.337C33.9365 119.085 29.2179 123.222 22.8742 125.817C17.9254 127.842 14.8437 127.397 12.3158 129.045C10.4021 130.987 8.27074 132.131 6.20353 132.923C5.66725 133.139 5.06221 133.423 3.52212 134.576" stroke="#5B4625" stroke-width="3" stroke-linecap="round"/>
<path d="M45.6915 135.867C42.3362 135.867 35.6625 135.015 30.1209 133.362C26.9032 132.14 22.6542 130.143 19.1156 128.983C18.5014 128.839 17.8964 128.697 15.8979 128.55" stroke="#5B4625" stroke-width="3" stroke-linecap="round"/>
<path d="M92.9027 113.055C92.9027 111.919 92.1464 109.203 90.7736 105.691C88.8193 100.691 77.5109 97.1558 73.8119 93.4822C73.0465 92.404 72.281 91.5388 71.5178 90.6091C71.2084 90.1055 71.0572 89.5374 70.443 88.0912" stroke="#5B4625" stroke-width="3" stroke-linecap="round"/>
<path d="M113.071 118.22C108.835 119.641 103.628 122.645 98.2884 126.443C94.6953 128.999 91.5413 130.69 89.2518 133.052C86.3439 136.054 86.7973 142.995 86.41 147.478C86.1831 148.909 86.0272 150.635 85.876 152.355C85.7247 153.08 85.4222 153.506 85.5689 153.945" stroke="#5B4625" stroke-width="3" stroke-linecap="round"/>
<path d="M64.0259 126.398C64.7868 127.255 66.9136 129.54 69.3658 132.342C70.3221 133.435 70.7455 135.992 71.2038 139.074C71.7583 142.802 67.2436 146.189 66.1687 148.055C64.3376 150.355 60.9915 152.352 56.4011 156.512C55.6241 157.384 55.4729 157.81 54.8587 158.249" stroke="#5B4625" stroke-width="3" stroke-linecap="round"/>
<path d="M138.596 127.535C119.831 146.302 116.746 152.667 114.899 159.739C113.677 164.418 113.662 169.143 110.443 180.677C109.044 186.496 108.739 189.098 108.278 190.828C108.121 191.699 108.121 192.558 107.197 194.309" stroke="#5B4625" stroke-width="3" stroke-linecap="round"/>
<path d="M109.968 177.833C97.057 174.373 88.4685 170.913 83.0476 166.577C78.2731 162.232 74.8838 160.203 73.0415 159.626C72.1133 159.336 71.1991 159.049 71.1806 159.622" stroke="#5B4625" stroke-width="3" stroke-linecap="round"/>
<path d="M85.0331 167.427C82.2718 167.427 73.711 170.288 66.1198 175.791C63.4879 179.559 61.6501 183.591 59.7985 187.359C59.1843 188.231 58.2701 189.089 56.4046 189.974" stroke="#5B4625" stroke-width="3" stroke-linecap="round"/>
<path d="M101.656 175.231C97.9805 176.09 90.611 180.122 86.5846 183.747C83.0018 186.973 80.1201 190.529 76.7355 193.434C75.8073 194.015 74.8931 194.587 73.965 195.025C73.0368 195.463 72.1226 195.749 71.1806 196.044" stroke="#5B4625" stroke-width="3" stroke-linecap="round"/>
<path d="M143.479 225.105C143.479 225.964 143.051 227.693 142.508 229.098C142.399 229.531 142.292 230.066 142.237 230.663C142.182 231.259 142.182 231.901 141.858 232.238" stroke="#5B4625" stroke-width="4" stroke-linecap="round"/>
<path d="M139.912 239.048C139.805 239.8 138.946 242.381 138.293 244.5C138.184 244.881 138.077 245.202 137.915 245.528C137.753 245.853 137.539 246.175 137.318 246.505" stroke="#5B4625" stroke-width="4" stroke-linecap="round"/>
<path d="M134.076 254.936C134.076 255.043 134.076 255.15 133.862 255.633C133.648 256.116 133.22 256.972 132.625 258.162C132.03 259.352 131.281 260.85 129.861 263.042" stroke="#5B4625" stroke-width="4" stroke-linecap="round"/>
<path d="M125.645 269.527C125.431 269.955 125.217 270.383 124.786 271.085C124.355 271.787 123.713 272.75 123.275 273.406C122.837 274.063 122.623 274.384 121.754 275.363" stroke="#5B4625" stroke-width="4" stroke-linecap="round"/>
<path d="M117.215 282.496C117.108 283.894 116.677 286.057 116.19 287.516C116.028 288.002 115.814 288.644 115.651 289.135C115.487 289.626 115.38 289.947 115.27 290.278" stroke="#5B4625" stroke-width="4" stroke-linecap="round"/>
<path d="M113.973 298.709V305.518" stroke="#5B4625" stroke-width="4" stroke-linecap="round"/>
<path d="M116.567 312.975C116.567 313.189 116.781 313.621 117.265 314.267C117.857 314.914 118.616 315.566 119.425 316.159C119.806 316.432 120.127 316.646 120.782 316.866" stroke="#5B4625" stroke-width="4" stroke-linecap="round"/>
<path d="M125.645 319.136C125.859 319.136 126.398 319.136 127.367 319.243C127.909 319.35 128.551 319.564 129.63 319.674C130.71 319.784 132.208 319.784 133.751 319.784" stroke="#5B4625" stroke-width="4" stroke-linecap="round"/>
<path d="M141.209 319.136C141.423 319.136 142.068 319.136 143.146 319.029C143.69 318.922 144.225 318.708 144.607 318.437C144.99 318.167 145.204 317.846 146.073 317.191" stroke="#5B4625" stroke-width="4" stroke-linecap="round"/>
<path d="M153.53 315.245C153.744 315.245 154.283 315.245 155.092 315.138C155.473 315.031 155.794 314.817 156.119 314.653C156.445 314.49 156.766 314.383 157.421 314.272" stroke="#5B4625" stroke-width="4" stroke-linecap="round"/>
<path d="M165.203 312.651C165.845 312.651 166.487 312.651 167.085 312.598C167.684 312.544 168.219 312.437 168.655 312.275C169.091 312.113 169.412 311.899 170.067 311.354" stroke="#5B4625" stroke-width="4" stroke-linecap="round"/>
<path d="M177.2 308.76C178.166 308.76 180.112 308.332 182.218 307.197C182.709 306.925 183.03 306.711 183.356 306.494C183.682 306.277 184.003 306.063 184.658 305.842" stroke="#5B4625" stroke-width="4" stroke-linecap="round"/>
<path d="M190.818 301.303C190.818 301.089 191.032 300.443 191.41 299.472C191.681 298.715 192.112 297.635 192.652 296.34C192.871 295.794 192.978 295.473 193.088 294.169" stroke="#5B4625" stroke-width="4" stroke-linecap="round"/>
<path d="M190.819 289.306C190.819 288.878 190.712 288.336 190.442 287.689C190.066 287.042 189.632 286.391 189.201 285.744C188.983 285.418 188.769 285.097 188.225 284.442" stroke="#5B4625" stroke-width="4" stroke-linecap="round"/>
<path d="M183.037 279.254C182.823 279.254 182.391 279.147 181.691 278.771C180.884 278.074 179.801 277.526 178.56 277.203C177.962 276.987 177.427 276.666 176.876 276.336" stroke="#5B4625" stroke-width="4" stroke-linecap="round"/>
<path d="M169.418 275.687C169.311 275.687 169.204 275.687 168.454 275.687C167.703 275.687 166.312 275.687 165.435 275.794C164.558 275.901 164.237 276.115 163.258 276.66" stroke="#5B4625" stroke-width="4" stroke-linecap="round"/>
<path d="M158.07 279.254C155.803 280.33 154.51 282.055 153.318 283.733C153.099 284.114 152.992 284.435 152.83 284.815C152.668 285.194 152.454 285.622 152.882 286.063" stroke="#5B4625" stroke-width="4" stroke-linecap="round"/>
<path d="M150.936 291.575C150.829 292.431 150.722 293.287 150.667 294.263C150.612 295.239 150.612 296.309 150.612 297.412" stroke="#5B4625" stroke-width="4" stroke-linecap="round"/>
<path d="M150.936 303.572C150.936 304.214 150.936 304.856 150.936 305.669C150.936 306.481 150.936 307.444 151.261 309.084" stroke="#5B4625" stroke-width="4" stroke-linecap="round"/>
<path d="M153.855 321.082C153.855 321.296 153.855 321.51 153.855 322.529C153.855 323.549 153.855 325.368 154.503 327.242" stroke="#5B4625" stroke-width="4" stroke-linecap="round"/>
<path d="M156.773 334.375C156.773 334.803 157.094 335.666 157.687 336.853C158.174 337.825 158.501 338.587 158.77 339.234C158.932 339.56 159.146 339.881 159.367 340.212" stroke="#5B4625" stroke-width="4" stroke-linecap="round"/>
<path d="M161.636 345.4C162.064 346.256 162.492 347.112 162.766 347.713C163.04 348.315 163.147 348.636 163.47 349.069C163.793 349.502 164.328 350.037 164.879 350.912" stroke="#5B4625" stroke-width="4" stroke-linecap="round"/>
<path d="M169.418 354.154C169.846 354.154 170.274 354.154 170.976 354.315C171.678 354.475 172.641 354.796 173.405 355.122C174.169 355.448 174.704 355.769 175.579 356.424" stroke="#5B4625" stroke-width="4" stroke-linecap="round"/>
<path d="M182.064 357.073C182.171 357.073 182.278 357.073 183.082 357.126C183.886 357.18 185.384 357.287 186.316 357.395C187.249 357.504 187.57 357.611 188.873 357.721" stroke="#5B4625" stroke-width="4" stroke-linecap="round"/>
<path d="M197.628 358.045C198.805 358.045 199.982 358.045 200.802 358.045C201.622 358.045 202.05 358.045 203.14 358.37" stroke="#5B4625" stroke-width="4" stroke-linecap="round"/>
<path d="M209.625 358.045C210.588 358.045 211.551 358.045 212.207 357.992C212.864 357.938 213.185 357.831 213.564 357.723C213.944 357.614 214.372 357.507 214.813 357.397" stroke="#5B4625" stroke-width="4" stroke-linecap="round"/>
<path d="M221.946 355.451C223.337 355.13 224.728 354.809 225.605 354.484C226.482 354.158 226.803 353.837 227.134 353.506" stroke="#5B4625" stroke-width="4" stroke-linecap="round"/>
<path d="M231.998 351.236C231.998 351.022 232.319 350.698 232.965 350.16C233.612 349.408 234.264 348.539 234.911 347.73C235.237 347.349 235.558 347.028 235.888 346.697" stroke="#5B4625" stroke-width="4" stroke-linecap="round"/>
<path d="M235.24 340.536C235.24 340.429 235.24 340.322 235.187 340.107C235.133 339.891 235.026 339.57 234.592 338.591" stroke="#5B4625" stroke-width="4" stroke-linecap="round"/>
<path d="M231.349 333.727C231.242 333.513 231.135 333.299 230.973 333.028C230.811 332.758 230.597 332.437 230.219 332.004C229.841 331.571 229.306 331.036 228.107 329.836" stroke="#5B4625" stroke-width="4" stroke-linecap="round"/>
<path d="M218.055 325.621H223.891" stroke="#5B4625" stroke-width="4" stroke-linecap="round"/>
<path d="M212.219 328.539C211.791 328.646 211.363 328.753 210.982 328.915C210.601 329.077 210.28 329.291 209.9 329.562C209.521 329.833 209.093 330.154 208.003 331.133" stroke="#5B4625" stroke-width="4" stroke-linecap="round"/>
<path d="M205.41 336.645C205.195 337.073 204.981 337.501 204.818 337.882C204.654 338.263 204.547 338.584 204.437 339.888" stroke="#5B4625" stroke-width="4" stroke-linecap="round"/>
<path d="M204.761 345.724C204.761 346.366 204.761 347.008 204.761 347.553C204.761 348.098 204.761 348.526 204.814 348.907C204.868 349.288 204.975 349.609 205.734 350.588" stroke="#5B4625" stroke-width="4" stroke-linecap="round"/>
<path d="M212.219 364.206C212.219 365.276 212.433 366.255 212.917 367.064C213.188 367.445 213.509 367.766 213.888 368.36C214.268 368.953 214.696 369.809 215.461 371.339" stroke="#5B4625" stroke-width="4" stroke-linecap="round"/>
<path d="M219.028 376.852C219.884 378.564 220.646 379.767 221.239 380.413C221.511 380.739 221.725 381.06 221.996 381.386C222.267 381.712 222.588 382.033 223.567 382.688" stroke="#5B4625" stroke-width="4" stroke-linecap="round"/>
<path d="M228.107 387.876C228.963 389.374 229.832 390.681 230.534 391.705C230.808 392.195 230.915 392.623 231.023 393.004C231.132 393.385 231.239 393.706 231.349 394.037" stroke="#5B4625" stroke-width="4" stroke-linecap="round"/>
</svg>
