<svg width="158" height="158" viewBox="0 0 158 158" fill="none" xmlns="http://www.w3.org/2000/svg">
<g clip-path="url(#clip0_5_80)">
<path d="M34.83 46.662C34.83 42.1542 31.1628 38.4874 26.6554 38.4874C22.1481 38.4874 18.4809 42.1546 18.4809 46.662C18.4809 51.1693 22.1481 54.8361 26.6554 54.8361C31.1628 54.8361 34.83 51.1693 34.83 46.662ZM22.5111 46.662C22.5111 44.3766 24.3705 42.5173 26.6558 42.5173C28.9412 42.5173 30.8005 44.3766 30.8005 46.662C30.8005 48.9473 28.9412 50.8062 26.6558 50.8062C24.3701 50.8062 22.5111 48.9473 22.5111 46.662Z" fill="#5E4926"/>
<path d="M139.519 46.662C139.519 42.1542 135.852 38.4874 131.345 38.4874C126.837 38.4874 123.17 42.1546 123.17 46.662C123.17 51.1693 126.837 54.8361 131.345 54.8361C135.852 54.8361 139.519 51.1693 139.519 46.662ZM131.345 50.8062C129.059 50.8062 127.2 48.9473 127.2 46.662C127.2 44.3766 129.059 42.5173 131.345 42.5173C133.63 42.5173 135.489 44.3766 135.489 46.662C135.489 48.9473 133.63 50.8062 131.345 50.8062Z" fill="#5E4926"/>
<path d="M140.746 88.9205C141.974 89.618 143.369 89.9715 144.805 89.9715C147.269 89.9715 149.841 88.9547 151.835 86.9604C155.355 83.4407 159.44 76.0201 157.5 70.544C157.288 69.948 156.822 69.5224 156.27 69.3266L156.273 69.3181C150.797 67.3773 143.377 71.4628 139.856 74.9833C136.701 78.1386 136.002 82.7343 137.898 86.0706L133.359 90.6094V71.7642C137.391 70.9123 140.514 67.5692 141.023 63.4225C142.22 63.9322 143.512 64.1982 144.816 64.1982C148.289 64.1982 151.528 62.3308 153.271 59.3221C155.756 55.017 154.575 49.5848 150.703 46.6623C154.575 43.7403 155.757 38.3073 153.272 34.005C151.539 30.9935 148.301 29.1229 144.821 29.1229C143.517 29.1229 142.223 29.388 141.021 29.8966C140.428 25.0829 136.314 21.3432 131.342 21.3432C126.37 21.3432 122.256 25.0821 121.662 29.8958C120.463 29.3876 119.171 29.1229 117.868 29.1229C114.391 29.1229 111.152 30.9927 109.411 34.0054C106.934 38.3121 108.115 43.7431 111.981 46.6623C108.117 49.5799 106.935 55.0122 109.414 59.3241C111.155 62.3304 114.394 64.1982 117.868 64.1982C119.173 64.1982 120.464 63.935 121.662 63.4285C122.172 67.5732 125.297 70.9151 129.328 71.7654V90.6094L124.79 86.0706C126.685 82.7347 125.986 78.1386 122.831 74.9833C119.311 71.4632 111.89 67.3798 106.414 69.3181L106.418 69.327C105.865 69.5228 105.399 69.9488 105.188 70.5444C103.248 76.0205 107.333 83.4411 110.853 86.9608C112.847 88.9547 115.418 89.9719 117.883 89.9719C119.318 89.9719 120.713 89.618 121.941 88.9209L129.328 96.3076V102.324H81.0151V80.8479L88.4022 73.4612C89.6301 74.1588 91.0249 74.5122 92.4603 74.5122C94.9249 74.5122 97.4968 73.4954 99.4904 71.5011C103.01 67.9814 107.095 60.5609 105.155 55.0847C104.944 54.4887 104.478 54.0631 103.926 53.8673L103.929 53.8588C98.4535 51.9181 91.0329 56.0035 87.5125 59.524C84.3571 62.6793 83.6587 67.275 85.5536 70.6113L81.0151 75.1501V56.3049C85.0466 55.453 88.1701 52.1099 88.6787 47.9632C89.8764 48.4729 91.1675 48.7389 92.472 48.7389C95.9449 48.7389 99.1841 46.8715 100.927 43.8628C103.412 39.5577 102.231 34.1255 98.3592 31.2031C102.232 28.281 103.413 22.848 100.928 18.5457C99.1954 15.5342 95.9574 13.6636 92.4776 13.6636C91.1732 13.6636 89.8792 13.9287 88.6779 14.4373C88.0847 9.62367 83.9702 5.88397 78.9982 5.88397C74.027 5.88397 69.9121 9.62286 69.3185 14.4365C68.1192 13.9283 66.8273 13.6636 65.524 13.6636C62.0483 13.6636 58.8087 15.5334 57.0678 18.5461C54.5903 22.8528 55.7718 28.2838 59.6376 31.2031C55.773 34.1207 54.5915 39.5529 57.0706 43.8648C58.8111 46.8711 62.0503 48.7389 65.5248 48.7389C66.8297 48.7389 68.1205 48.4758 69.3185 47.9692C69.8291 52.1139 72.9534 55.4559 76.9849 56.3062V75.1501L72.4465 70.6113C74.3413 67.2754 73.643 62.6793 70.4876 59.524C66.9675 56.0039 59.5474 51.9205 54.0712 53.8588L54.0744 53.8673C53.522 54.0635 53.0557 54.4895 52.8449 55.0847C50.905 60.5609 54.9896 67.9814 58.5097 71.5011C60.5037 73.495 63.0751 74.5122 65.5397 74.5122C66.9752 74.5122 68.3699 74.1584 69.5978 73.4612L76.9849 80.8479V102.324H28.6703V96.3076L36.057 88.9209C37.2849 89.6184 38.6796 89.9719 40.1155 89.9719C42.5801 89.9719 45.1516 88.9551 47.1455 86.9608C50.6656 83.4411 54.7507 76.0205 52.8103 70.5444C52.5995 69.9484 52.1333 69.5228 51.5808 69.327L51.5836 69.3185C46.1091 67.3777 38.6877 71.4632 35.1672 74.9837C32.0119 78.139 31.3135 82.7347 33.2083 86.071L28.6699 90.6098V71.7646C32.7014 70.9127 35.8249 67.5696 36.3335 63.4229C37.5311 63.9326 38.8223 64.1986 40.1268 64.1986C43.5997 64.1986 46.8389 62.3312 48.5818 59.3225C51.0666 55.0174 49.8858 49.5852 46.014 46.6627C49.8866 43.7407 51.0682 38.3077 48.5834 34.0054C46.8506 30.9939 43.6122 29.1233 40.1328 29.1233C38.8283 29.1233 37.5344 29.3884 36.3331 29.897C35.7399 25.0833 31.6254 21.3437 26.6534 21.3437C21.6822 21.3437 17.5673 25.0825 16.9737 29.8962C15.7744 29.388 14.4825 29.1233 13.1792 29.1233C9.70347 29.1233 6.46389 30.9931 4.723 34.0058C2.24545 38.3125 3.427 43.7435 7.29283 46.6627C3.42821 49.5803 2.24666 55.0126 4.72582 59.3245C6.4663 62.3308 9.70549 64.1986 13.1796 64.1986C14.4845 64.1986 15.7752 63.9354 16.9733 63.4289C17.4839 67.5736 20.6082 70.9155 24.6397 71.7658V90.6098L20.1013 86.071C21.9961 82.7351 21.2977 78.139 18.1424 74.9837C14.6223 71.4636 7.20135 67.3802 1.726 69.3185L1.72923 69.3274C1.17673 69.5232 0.710482 69.9488 0.499722 70.5448C-1.44024 76.0209 2.6444 83.4415 6.16447 86.9612C8.15843 88.9551 10.7299 89.9723 13.1945 89.9723C14.63 89.9723 16.0247 89.6184 17.2526 88.9213L24.6397 96.308V102.325H15.3888C11.3811 102.325 8.12015 105.585 8.12015 109.593C8.12015 113.065 10.5691 115.973 13.8296 116.688L17.3928 150.315C17.5016 151.34 18.366 152.118 19.3965 152.118H138.604C139.634 152.118 140.499 151.34 140.607 150.315L144.17 116.688C147.431 115.973 149.879 113.065 149.879 109.593C149.879 105.585 146.619 102.325 142.611 102.325H133.36V96.308L140.746 88.9205ZM142.706 77.8324C145.55 74.9885 150.62 72.5347 153.915 72.9031C154.284 76.1987 151.829 81.2682 148.985 84.1117C147.483 85.6144 145.481 86.2189 143.823 85.8445L148.48 81.1868C149.267 80.4002 149.267 79.1243 148.48 78.3377C147.693 77.5507 146.418 77.5507 145.631 78.3377L140.974 82.995C140.6 81.3363 141.204 79.3351 142.706 77.8324ZM121.716 82.9946L117.058 78.3373C116.271 77.5503 114.996 77.5503 114.209 78.3373C113.422 79.1239 113.422 80.3998 114.209 81.1864L118.867 85.8441C117.208 86.2189 115.207 85.6144 113.704 84.1113C110.86 81.2674 108.406 76.1979 108.774 72.9031C112.07 72.5351 117.139 74.9885 119.983 77.832C121.486 79.3351 122.09 81.3363 121.716 82.9946ZM90.362 62.3723C93.2058 59.5284 98.275 57.075 101.57 57.4434C101.939 60.7386 99.4843 65.8081 96.6404 68.6516C95.1373 70.1543 93.1365 70.7584 91.4782 70.3844L96.1355 65.7267C96.9225 64.9401 96.9225 63.6642 96.1355 62.8776C95.3485 62.0906 94.073 62.0906 93.286 62.8776L88.6287 67.5349C88.2548 65.8766 88.8592 63.8754 90.362 62.3723ZM69.3713 67.5349L64.714 62.8776C63.927 62.0906 62.6516 62.0906 61.8645 62.8776C61.0775 63.6642 61.0775 64.9401 61.8645 65.7267L66.5222 70.3844C64.8639 70.7588 62.8627 70.1547 61.3596 68.6516C58.5157 65.8077 56.0616 60.7386 56.4299 57.4434C59.7259 57.0759 64.7946 59.5288 67.6385 62.3723C69.1412 63.8754 69.7457 65.8766 69.3713 67.5349ZM73.275 46.7687V44.5999C73.275 43.8789 72.8902 43.2132 72.2652 42.8537C71.954 42.6744 71.6071 42.5849 71.2601 42.5849C70.9103 42.5849 70.5609 42.676 70.2478 42.8578L68.3788 43.9434C67.5124 44.4435 66.5254 44.7079 65.5248 44.7079C63.4837 44.7079 61.5808 43.6105 60.5613 41.8499C58.9876 39.1124 59.927 35.6032 62.6548 34.0284L64.5291 32.9476C65.1529 32.5873 65.5373 31.922 65.5373 31.2019C65.5373 30.4817 65.1529 29.8164 64.5291 29.4561L62.656 28.3761C59.9266 26.8001 58.9868 23.2909 60.5593 20.5574C61.5808 18.7899 63.4829 17.6922 65.5244 17.6922C66.521 17.6922 67.5079 17.9578 68.3796 18.4611L70.2534 19.5423C70.8765 19.9018 71.645 19.9018 72.268 19.5419C72.8914 19.1816 73.275 18.5167 73.275 17.797V15.6358C73.275 12.4804 75.8424 9.91301 78.9982 9.91301C82.154 9.91301 84.7214 12.4804 84.7214 15.6358V17.797C84.7214 18.5167 85.1054 19.182 85.7289 19.5419C86.3519 19.9014 87.1199 19.9018 87.7434 19.5423L89.6164 18.4615C90.4897 17.9582 91.4794 17.6922 92.478 17.6922C94.52 17.6922 96.4196 18.7891 97.4376 20.5574C99.0152 23.2897 98.0751 26.7972 95.3424 28.3757L93.4686 29.4565C92.8447 29.8164 92.4603 30.4817 92.4603 31.2019C92.4603 31.922 92.8447 32.5873 93.4686 32.9472L95.3412 34.0276C98.0747 35.6061 99.0148 39.114 97.4388 41.8439C96.4156 43.6105 94.5127 44.7075 92.4724 44.7075C91.4762 44.7075 90.4909 44.4407 89.616 43.9317L87.7422 42.8529C87.1187 42.4943 86.3515 42.4939 85.728 42.8549C85.1054 43.2152 84.7218 43.8797 84.7218 44.5991V46.7679C84.7218 49.9233 82.1544 52.4907 78.9986 52.4907C75.8424 52.4915 73.275 49.9241 73.275 46.7687ZM38.0175 77.8324C40.8614 74.9885 45.9305 72.5347 49.2257 72.9031C49.5945 76.1987 47.1399 81.2682 44.296 84.1117C42.7933 85.6144 40.7917 86.2189 39.1334 85.8445L43.7911 81.1868C44.5781 80.4002 44.5781 79.1243 43.7911 78.3377C43.0041 77.5507 41.7286 77.5507 40.9416 78.3377L36.2843 82.9946C35.9103 81.3363 36.5144 79.3351 38.0175 77.8324ZM17.0265 82.9946L12.3692 78.3373C11.5822 77.5503 10.3067 77.5503 9.51972 78.3373C8.73269 79.1239 8.73269 80.3998 9.51972 81.1864L14.1774 85.8441C12.5191 86.2189 10.5179 85.6144 9.01478 84.1113C6.17092 81.2674 3.71634 76.1979 4.08507 72.9031C7.38068 72.5351 12.4502 74.9885 15.2937 77.832C16.7964 79.3351 17.4009 81.3363 17.0265 82.9946ZM20.9306 62.2284V60.0596C20.9306 59.3386 20.5454 58.6729 19.9207 58.3134C19.6096 58.1341 19.2627 58.0446 18.9157 58.0446C18.5659 58.0446 18.2165 58.1357 17.9034 58.3175L16.0344 59.4031C15.1679 59.9032 14.181 60.1675 13.1804 60.1675C11.1393 60.1675 9.23642 59.0702 8.21687 57.3096C6.64321 54.5721 7.58257 51.0629 10.3104 49.4881L12.1846 48.4073C12.8085 48.047 13.1933 47.3817 13.1933 46.6615C13.1933 45.9414 12.8089 45.2761 12.1846 44.9158L10.3116 43.8358C7.58217 42.2597 6.64241 38.7506 8.21485 36.0171C9.23642 34.2496 11.1385 33.1519 13.18 33.1519C14.1766 33.1519 15.1635 33.4175 16.0352 33.9208L17.909 35.002C18.5321 35.3619 19.3005 35.3615 19.9236 35.0016C20.547 34.6413 20.931 33.9764 20.931 33.2567V31.0955C20.931 27.9401 23.4984 25.3727 26.6542 25.3727C29.81 25.3727 32.3774 27.9401 32.3774 31.0955V33.2567C32.3774 33.9764 32.7614 34.6417 33.3848 35.0016C34.0074 35.3611 34.7759 35.3619 35.3994 35.002L37.2724 33.9212C38.1461 33.4179 39.1354 33.1519 40.134 33.1519C42.1759 33.1519 44.0756 34.2488 45.0935 36.0171C46.6712 38.7493 45.7311 42.2569 42.9984 43.8354L41.1245 44.9162C40.5007 45.2761 40.1159 45.9414 40.1159 46.6615C40.1159 47.3817 40.5003 48.047 41.1245 48.4069L42.9972 49.4873C45.7307 51.0658 46.6708 54.5737 45.0947 57.3035C44.0716 59.0702 42.1687 60.1671 40.1284 60.1671C39.1322 60.1671 38.1473 59.9004 37.272 59.3914L35.3981 58.3126C34.7743 57.9536 34.007 57.954 33.384 58.3146C32.7614 58.6749 32.3778 59.3394 32.3778 60.0587V62.2276C32.3778 65.383 29.8104 67.9504 26.6546 67.9504C23.4976 67.9512 20.9306 65.3838 20.9306 62.2284ZM136.791 148.087H21.2095L17.9006 116.861H140.1L136.791 148.087ZM142.612 106.354C144.398 106.354 145.85 107.806 145.85 109.592C145.85 111.378 144.398 112.831 142.612 112.831H15.3888C13.6027 112.831 12.15 111.378 12.15 109.592C12.15 107.806 13.6027 106.354 15.3888 106.354H142.612ZM131.343 67.9512C128.187 67.9512 125.619 65.3838 125.619 62.2284V60.0596C125.619 59.3386 125.234 58.6729 124.61 58.3134C124.298 58.1341 123.951 58.0446 123.605 58.0446C123.255 58.0446 122.905 58.1357 122.592 58.3175L120.723 59.4031C119.857 59.9032 118.87 60.1675 117.869 60.1675C115.828 60.1675 113.925 59.0702 112.906 57.3096C111.332 54.5721 112.271 51.0629 114.999 49.4881L116.873 48.4073C117.497 48.047 117.882 47.3817 117.882 46.6615C117.882 45.9414 117.497 45.2761 116.873 44.9158L115 43.8358C112.271 42.2597 111.331 38.7506 112.904 36.0171C113.925 34.2496 115.827 33.1519 117.869 33.1519C118.865 33.1519 119.852 33.4175 120.724 33.9208L122.598 35.002C123.221 35.3619 123.989 35.3615 124.612 35.0016C125.236 34.6413 125.62 33.9764 125.62 33.2567V31.0955C125.62 27.9401 128.187 25.3727 131.343 25.3727C134.499 25.3727 137.066 27.9401 137.066 31.0955V33.2567C137.066 33.9764 137.45 34.6417 138.073 35.0016C138.696 35.3611 139.464 35.3619 140.088 35.002L141.961 33.9212C142.835 33.4179 143.824 33.1519 144.822 33.1519C146.864 33.1519 148.764 34.2488 149.782 36.0171C151.36 38.7493 150.419 42.2569 147.687 43.8354L145.813 44.9162C145.189 45.2761 144.805 45.9414 144.805 46.6615C144.805 47.3817 145.189 48.047 145.813 48.4069L147.686 49.4873C150.419 51.0658 151.359 54.5737 149.783 57.3035C148.76 59.0702 146.857 60.1671 144.817 60.1671C143.821 60.1671 142.836 59.9004 141.96 59.3914L140.087 58.3126C139.463 57.9536 138.696 57.954 138.072 58.3146C137.45 58.6749 137.066 59.3394 137.066 60.0587V62.2276C137.066 65.3838 134.498 67.9512 131.343 67.9512Z" fill="#5E4926"/>
<path d="M87.1747 31.2022C87.1747 26.6945 83.5076 23.0277 79.0002 23.0277C74.4928 23.0277 70.8257 26.6949 70.8257 31.2022C70.8257 35.7096 74.4928 39.3764 79.0002 39.3764C83.5076 39.3764 87.1747 35.7092 87.1747 31.2022ZM74.8555 31.2022C74.8555 28.9169 76.7149 27.0575 79.0002 27.0575C81.2855 27.0575 83.1449 28.9169 83.1449 31.2022C83.1449 33.4876 81.2855 35.3465 79.0002 35.3465C76.7149 35.3465 74.8555 33.4876 74.8555 31.2022Z" fill="#5E4926"/>
</g>
<defs>
<clipPath id="clip0_5_80">
<rect width="158" height="158" fill="white"/>
</clipPath>
</defs>
</svg>
