<svg width="234" height="234" viewBox="0 0 234 234" fill="none" xmlns="http://www.w3.org/2000/svg">
<path d="M51.3703 73.0153L44.204 80.4009L88.7554 122.137C88.7554 122.137 190.491 98.8833 190.491 98.0058C190.491 97.1283 190.929 81.4795 190.929 81.4795C190.929 81.4795 189.577 79.688 188.681 78.7374C187.785 77.7867 183.032 73.5455 183.032 73.5455L51.3703 73.0153Z" fill="#5C4726"/>
<path d="M71.7722 53.6555L74.2767 68.189L151.442 76.3608L178.224 57.2934L131.022 48.6647L71.7722 53.6555Z" fill="#5C4725"/>
<path d="M59.7066 79.0116C59.7066 79.0116 48.0614 76.4705 43.7288 71.0044C41.1694 67.7686 41.0231 63.0886 43.3448 58.8291C46.5258 53.0339 55.4288 50.31 59.4141 49.4874C63.3994 48.6647 84.2766 41.5167 120.967 42.6136C157.658 43.7105 194.074 51.8274 193.379 64.7339C192.684 77.6405 177.712 77.5125 177.712 77.5125L175.518 55.3922L155.555 55.6116C155.555 55.6116 133.746 53.2167 118.92 52.65C101.607 52.0102 89.0845 53.6006 89.0845 53.6006L64.8984 57.8602L59.7066 79.0116Z" fill="#5C4626"/>
<path d="M127.311 69.6516C127.859 69.1031 168.535 27.6047 168.535 27.6047C168.535 27.6047 167.95 21.4805 168.681 18.3909C169.924 13.1625 175.683 6.16078 180.637 6.58125C185.591 7.00172 199.467 21.8278 198.772 25.8131C198.077 29.7984 193.964 34.4784 189.832 35.9775C185.719 37.4948 181.46 37.0744 181.46 37.0744L147.091 71.4431L127.311 69.6516Z" fill="#AE5614"/>
<path d="M173.215 27.0563C176.268 27.7692 183.251 21.8278 184.074 20.4567C184.897 19.0856 182.008 17.0199 181.058 14.6799C180.107 12.3399 180.089 10.4203 178.169 10.8408C176.25 11.2613 172.959 14.8627 172.118 17.8425C170.875 22.2483 171.423 26.6541 173.215 27.0563Z" fill="#DF8116"/>
<path d="M44.5697 79.8342C44.5697 79.8342 29.9081 95.1722 30.7856 117.384C31.6814 139.596 40.7855 165.829 48.1162 179.376C55.447 192.922 65.6662 212.483 69.6698 215.152C73.6734 217.821 85.5562 225.773 113.435 226.267C146.378 226.852 161.789 218.936 165.555 215.609C169.339 212.282 178.754 198.059 187.419 175.829C196.085 153.599 202.3 134.276 202.081 113.618C201.862 92.9602 190.875 81.5161 190.875 81.5161C190.875 81.5161 163.087 97.11 116.214 95.9949C69.3408 94.8797 44.5697 79.8342 44.5697 79.8342Z" fill="#5D4827"/>
<path d="M115.263 205.883C158.59 206.651 179.412 194.311 179.412 194.311C179.412 194.311 183.708 184.951 186.286 178.809C188.955 172.392 192.502 162.338 192.502 162.338C192.502 162.338 175.665 177.438 115.19 177.694C66.7083 177.895 40.1822 161.332 40.1822 161.332C40.1822 161.332 44.5331 172.74 48.2625 179.814C53.5275 189.796 56.9095 195.683 56.9095 195.683C56.9095 195.683 78.3717 205.244 115.263 205.883Z" fill="#5C4726"/>
<path d="M92.2838 52.0833C92.6677 48.9206 90.9492 38.1347 69.3225 39.3961C46.0322 40.7489 47.7689 58.8839 48.8841 62.3756C51.608 71.0044 56.5988 73.4175 56.8913 77.9512C57.202 82.485 53.4178 93.0698 52.65 111.534C51.8822 129.998 53.692 138.608 54.3136 141.168C55.4836 145.957 58.9936 149.029 62.7778 146.616C66.562 144.202 64.7522 137.091 64.2952 132.85C63.8381 128.609 64.2038 109.377 65.5748 102.119C66.9277 94.8614 68.5913 90.1997 72.9788 91.4245C77.3663 92.6494 75.9586 98.8284 75.6478 103.965C75.337 109.102 75.1908 118.938 75.7941 123.782C76.3973 128.627 78.9384 131.57 83.0152 131.332C88.4813 131.022 89.7061 126.652 89.9986 119.395C90.3094 112.137 89.8523 107.146 91.0589 100.035C92.2655 92.9236 95.7389 89.3039 98.4628 87.9328C101.187 86.58 107.384 85.5197 116.762 85.8122C126.141 86.1047 133.545 86.7262 136.415 90.803C139.285 94.8797 140.199 104.715 145.482 108.645C150.784 112.576 156.817 108.645 158.791 112.887C160.765 117.128 161.972 127.11 162.118 138.755C162.264 150.4 160.912 165.518 159.997 172.027C159.083 178.535 156.853 187.748 159.851 192.447C162.173 196.066 167.255 195.317 169.522 190.783C171.789 186.249 173.16 176.268 174.202 164.769C175.262 153.27 175.719 116.982 176.176 112.594C176.633 108.207 179.869 98.3165 184.494 83.8561C189.522 68.1159 195.244 55.4287 183.562 48.3173C177.328 44.5148 173.434 45.0816 173.434 45.0816L162.008 56.5256C162.008 56.5256 168.517 57.5859 168.462 60.0905C168.389 64.4414 140.638 68.317 121.57 68.6278C102.503 68.9386 75.9769 65.2275 75.9769 60.383C75.9769 55.5384 91.5159 58.2806 92.2838 52.0833Z" fill="#F3BB3B"/>
<path d="M171.021 51.1509C169.595 54.149 172.813 54.734 173.197 56.9826C173.562 59.2312 172.301 62.7412 173.8 63.1069C175.299 63.4725 181.423 61.3884 180.07 54.8803C178.717 48.3722 171.953 49.1583 171.021 51.1509Z" fill="white"/>
<path d="M144.33 87.3112C142.447 87.7683 142.521 93.5634 145.153 98.8284C148.06 104.66 152.85 104.733 153.965 102.795C155.08 100.858 152.027 98.8284 149.998 95.2453C147.018 89.9255 146.195 86.8725 144.33 87.3112Z" fill="white"/>
<path d="M72.8142 68.0245C71.3517 70.4559 74.4595 74.3681 82.7592 76.763C91.0589 79.1578 95.3915 77.5125 95.6109 74.4412C95.7937 71.9367 88.664 71.37 84.2583 70.1086C79.8342 68.8472 74.8251 64.6608 72.8142 68.0245Z" fill="white"/>
<path d="M66.233 42.7598C63.9844 41.5167 56.1417 42.1566 55.3191 49.1034C54.6792 54.4781 61.5347 62.9058 65.5566 60.383C67.9514 58.8839 63.765 54.5512 64.9533 50.9681C65.9222 48.098 69.3774 44.4783 66.233 42.7598Z" fill="white"/>
<path d="M79.231 118.005C76.8727 118.426 77.1835 123.307 77.7136 125.08C78.2438 126.854 79.3772 129.705 82.156 128.992C84.2766 128.444 84.0024 124.952 83.5453 122.905C83.07 120.839 81.8635 117.53 79.231 118.005Z" fill="#FFFCFF"/>
<path d="M57.3848 135.592C55.0448 135.903 55.118 138.279 55.8127 141.204C56.3063 143.307 57.9698 145.72 59.9625 145.19C61.9552 144.66 61.553 141.936 60.968 139.943C60.4378 138.206 59.8345 135.263 57.3848 135.592Z" fill="#FFFCFF"/>
<path d="M163.709 179.047C161.222 179.175 161.405 182.337 161.314 185.463C161.222 188.589 161.168 190.875 163.434 190.875C165.72 190.875 165.61 186.725 165.665 184.805C165.72 182.886 166.359 178.919 163.709 179.047Z" fill="white"/>
</svg>
