<svg width="214" height="214" viewBox="0 0 214 214" fill="none" xmlns="http://www.w3.org/2000/svg">
<path d="M200.173 113.215C200.878 115.33 200.526 117.653 199.216 119.459C197.914 121.264 195.828 122.336 193.598 122.336H191.779L200.173 147.52C200.878 149.635 200.526 151.958 199.216 153.764C197.914 155.569 195.828 156.641 193.598 156.641H191.779L200.173 181.825C200.878 183.939 200.526 186.263 199.216 188.068C197.914 189.881 195.828 190.953 193.598 190.953H183.377V206.893C183.377 210.72 180.269 213.82 176.442 213.82C172.616 213.82 169.515 210.72 169.515 206.893V190.953H46.1506V206.893C46.1506 210.72 43.0503 213.82 39.2235 213.82C35.3895 213.82 32.2892 210.72 32.2892 206.893V190.953H22.0675C19.8376 190.953 17.7444 189.881 16.4424 188.068C15.1404 186.263 14.7879 183.939 15.4929 181.825L23.8874 156.641H22.0675C19.8376 156.641 17.7444 155.569 16.4424 153.764C15.1404 151.958 14.7879 149.635 15.4929 147.52L23.8874 122.336H22.0675C19.8376 122.336 17.7444 121.264 16.4424 119.459C15.1404 117.653 14.7879 115.33 15.4929 113.215L26.9302 78.9103C27.5344 77.0976 28.858 75.6086 30.5987 74.8101L104.927 40.4982C106.768 39.6494 108.898 39.6494 110.739 40.4982L135.959 52.1441C139.052 49.461 143.26 48.4899 147.741 49.1229C150.417 45.9795 154.28 43.5481 158.876 42.4979C163.624 41.4189 168.472 41.9224 172.537 43.9294C176.874 46.073 179.938 49.7991 180.938 54.1654C182.283 60.0567 179.715 66.0631 174.795 70.0697L185.067 74.8101C186.801 75.6086 188.132 77.0976 188.736 78.9103L200.173 113.215ZM183.981 108.475L176.536 86.1395L167.285 81.8667C167.048 82.176 166.796 82.4781 166.523 82.7659C163.941 85.4921 160.38 86.8157 156.46 86.8157C156.445 86.8157 156.438 86.8157 156.424 86.8157C155.28 90.326 153.294 93.4263 150.64 95.7426C147.648 98.3537 144.001 99.7564 140.347 99.7564C139.548 99.7564 138.757 99.6917 137.966 99.555C129.111 98.0372 123.349 88.4414 125.111 78.1694C125.931 73.3786 128.269 69.0915 131.686 66.1134C131.758 66.0415 131.844 65.984 131.923 65.9192C131.894 65.7825 131.866 65.6459 131.837 65.5092L107.833 54.4244L39.13 86.1395L31.6849 108.475H183.981ZM183.981 142.779L177.169 122.336H38.497L31.6849 142.779H183.981ZM183.981 177.091L177.169 156.641H38.497L31.6849 177.091H183.981ZM167.307 63.4807C170.285 61.7543 172.076 58.9346 171.479 56.3234C171.004 54.2661 169.249 53.1296 168.249 52.6332C166.933 51.9858 165.379 51.6478 163.761 51.6478C162.862 51.6478 161.948 51.7485 161.042 51.9571C159.891 52.2232 158.819 52.6476 157.862 53.1799C159.207 54.0791 160.509 55.1221 161.754 56.3018C164.034 58.4598 165.919 60.9055 167.307 63.4807ZM159.984 76.5725C160.998 75.4935 161.286 73.5944 160.775 71.343C160.732 71.1775 160.682 71.0121 160.632 70.8394L154.302 77.5292C156.776 78.0615 158.884 77.7306 159.984 76.5725ZM147.756 74.3641L157.107 64.4878C156.625 63.9195 156.114 63.3656 155.56 62.8405C155.431 62.7254 155.301 62.6103 155.179 62.4952L145.67 72.537C145.792 72.6593 145.907 72.7888 146.029 72.9111C146.598 73.4434 147.173 73.9181 147.756 74.3641ZM141.62 66.7321L149.158 58.7691C147.705 58.2368 146.324 57.9706 145.116 57.9706C143.612 57.9706 142.375 58.3807 141.613 59.1791C140.246 60.625 140.239 63.5454 141.62 66.7321ZM144.26 88.4342C145.418 87.4271 146.346 86.0316 146.972 84.4563C144.497 83.2406 142.073 81.5646 139.836 79.4498C138.512 78.1909 137.34 76.8602 136.318 75.4863C135.52 76.7451 134.944 78.2341 134.671 79.8166C133.829 84.7296 136.088 89.3909 139.606 89.9951C141.692 90.3476 143.418 89.1679 144.26 88.4342Z" fill="#5B4625"/>
<path d="M176.536 86.1396L183.981 108.475H31.6849L39.13 86.1396L107.833 54.4244L131.837 65.5093C131.866 65.6459 131.894 65.7826 131.923 65.9193C131.844 65.984 131.758 66.0416 131.686 66.1135C128.269 69.0915 125.931 73.3787 125.111 78.1694C123.349 88.4414 129.111 98.0373 137.966 99.5551C138.757 99.6917 139.548 99.7565 140.347 99.7565C144.001 99.7565 147.648 98.3538 150.64 95.7426C153.294 93.4264 155.28 90.3261 156.424 86.8158C156.438 86.8158 156.445 86.8158 156.46 86.8158C160.38 86.8158 163.941 85.4922 166.523 82.7659C166.796 82.4782 167.048 82.1761 167.285 81.8668L176.536 86.1396Z" fill="#F3BB3C"/>
<path d="M177.169 122.336L183.981 142.779H31.6849L38.497 122.336H177.169Z" fill="#F3BB3C"/>
<path d="M177.169 156.641L183.981 177.091H31.6849L38.497 156.641H177.169Z" fill="#F3BB3C"/>
<path d="M171.479 56.3235C172.076 58.9346 170.285 61.7544 167.307 63.4808C165.919 60.9056 164.034 58.4599 161.754 56.3019C160.509 55.1222 159.207 54.0792 157.862 53.18C158.819 52.6477 159.891 52.2233 161.042 51.9571C161.948 51.7485 162.862 51.6478 163.761 51.6478C165.379 51.6478 166.933 51.9859 168.249 52.6333C169.249 53.1296 171.004 54.2662 171.479 56.3235Z" fill="#FFEC00"/>
<path d="M160.775 71.343C161.286 73.5945 160.998 75.4935 159.984 76.5725C158.884 77.7306 156.776 78.0615 154.302 77.5292L160.632 70.8395C160.682 71.0121 160.732 71.1776 160.775 71.343Z" fill="#FFEC00"/>
<path d="M157.107 64.4878L147.756 74.3641C147.173 73.9182 146.598 73.4434 146.029 72.9111C145.907 72.7888 145.792 72.6593 145.67 72.5371L155.179 62.4952C155.301 62.6103 155.431 62.7254 155.56 62.8405C156.114 63.3656 156.625 63.9195 157.107 64.4878Z" fill="#FFEC00"/>
<path d="M149.158 58.7692L141.62 66.7321C140.239 63.5455 140.246 60.625 141.613 59.1792C142.375 58.3807 143.612 57.9707 145.116 57.9707C146.324 57.9707 147.705 58.2369 149.158 58.7692Z" fill="#FFEC00"/>
<path d="M146.972 84.4563C146.346 86.0317 145.418 87.4272 144.26 88.4342C143.418 89.1679 141.692 90.3476 139.606 89.9952C136.088 89.3909 133.829 84.7297 134.671 79.8167C134.944 78.2342 135.52 76.7452 136.318 75.4863C137.34 76.8602 138.512 78.191 139.836 79.4498C142.073 81.5646 144.497 83.2407 146.972 84.4563Z" fill="#FFEC00"/>
<path d="M70.73 34.2688C71.8162 39.0092 71.3055 43.8575 69.3058 47.9289C67.1622 52.2664 63.4289 55.3236 59.0697 56.3234C58.0123 56.5608 56.9621 56.6759 55.9119 56.6759C49.4092 56.6759 43.2445 52.2089 40.2665 45.404C40.1226 45.404 39.9788 45.4112 39.8349 45.4112C36.1807 45.4112 32.8934 44.2099 30.4693 41.9081C27.7358 39.3257 26.4123 35.7435 26.4194 31.8159C22.9091 30.665 19.8016 28.6797 17.4926 26.0253C14.306 22.3855 12.9177 17.7603 13.673 13.3508C15.1979 4.50305 24.7866 -1.26596 35.0586 0.49639C39.8565 1.31642 44.1365 3.65424 47.1217 7.07105C47.1864 7.15017 47.244 7.2293 47.3159 7.30842C52.2217 6.32295 56.9118 7.29404 60.2494 10.4519C63.5655 13.5954 64.8028 18.199 64.105 23.1192C67.2557 25.8023 69.6798 29.6651 70.73 34.2688ZM60.6019 43.6345C61.609 41.5916 61.8535 38.966 61.2709 36.4268C61.0119 35.2759 60.5875 34.2041 60.0552 33.2474C59.1489 34.5853 58.113 35.8945 56.9333 37.139C54.7682 39.4264 52.3224 41.3111 49.7401 42.6994C51.4664 45.6774 54.3006 47.4613 56.9046 46.8643C58.969 46.3895 60.1056 44.6343 60.6019 43.6345ZM54.4588 24.5435C55.6601 21.285 55.4947 18.3645 54.0488 16.9978C53.3295 16.3144 52.2289 15.9691 50.9198 15.9691C49.6106 15.9691 48.0856 16.3072 46.4959 16.9978L54.4588 24.5435ZM50.7327 30.5571L40.6909 21.0476C40.5686 21.1699 40.4463 21.2922 40.324 21.4216C39.7917 21.9827 39.3098 22.5582 38.871 23.1408L48.7474 32.4921C49.3156 32.0101 49.8695 31.4994 50.3874 30.9455C50.5097 30.8233 50.6176 30.6866 50.7327 30.5571ZM41.885 36.1607C42.0504 36.1175 42.2231 36.0672 42.3885 36.0168L35.706 29.6867C35.1665 32.1612 35.4974 34.2688 36.6627 35.3694C37.7345 36.3837 39.6407 36.6714 41.885 36.1607ZM33.7782 15.221C35.037 13.8975 36.3606 12.7322 37.7345 11.7107C36.4756 10.9123 35.001 10.3296 33.4185 10.0563C32.7208 9.94116 32.0302 9.88362 31.354 9.88362C27.2611 9.88362 23.7579 11.9769 23.24 14.9908C22.8804 17.0769 24.0601 18.8033 24.801 19.6449C25.808 20.803 27.1963 21.7309 28.7788 22.3496C29.9945 19.8823 31.6633 17.4581 33.7782 15.221Z" fill="#5B4625"/>
<path d="M61.2709 36.4269C61.8535 38.9661 61.609 41.5916 60.6019 43.6345C60.1056 44.6344 58.969 46.3896 56.9046 46.8643C54.3006 47.4614 51.4664 45.6774 49.7401 42.6994C52.3224 41.3111 54.7682 39.4265 56.9333 37.139C58.113 35.8946 59.1489 34.5854 60.0552 33.2474C60.5875 34.2041 61.0119 35.2759 61.2709 36.4269Z" fill="#FFEC00"/>
<path d="M54.0489 16.9978C55.4947 18.3645 55.6601 21.2849 54.4589 24.5435L46.4959 16.9978C48.0856 16.3072 49.6106 15.9691 50.9198 15.9691C52.229 15.9691 53.3295 16.3144 54.0489 16.9978Z" fill="#FFEC00"/>
<path d="M40.6909 21.0476L50.7327 30.5571C50.6177 30.6866 50.5098 30.8233 50.3875 30.9456C49.8696 31.4994 49.3157 32.0102 48.7474 32.4921L38.871 23.1408C39.3098 22.5582 39.7918 21.9827 40.3241 21.4217C40.4464 21.2922 40.5686 21.1699 40.6909 21.0476Z" fill="#FFEC00"/>
<path d="M42.3885 36.0169C42.2231 36.0672 42.0505 36.1176 41.885 36.1607C39.6407 36.6714 37.7345 36.3837 36.6627 35.3695C35.4974 34.2689 35.1665 32.1613 35.706 29.6868L42.3885 36.0169Z" fill="#FFEC00"/>
<path d="M37.7345 11.7108C36.3605 12.7322 35.037 13.8975 33.7782 15.2211C31.6633 17.4582 29.9945 19.8823 28.7788 22.3496C27.1963 21.731 25.808 20.8031 24.8009 19.6449C24.06 18.8033 22.8803 17.0769 23.24 14.9909C23.7579 11.9769 27.261 9.88367 31.354 9.88367C32.0302 9.88367 32.7207 9.94121 33.4185 10.0563C35.001 10.3296 36.4756 10.9123 37.7345 11.7108Z" fill="#FFEC00"/>
</svg>
